<svg version="1.1" id="Layer_1" xmlns="http://www.w3.org/2000/svg" xmlns:xlink="http://www.w3.org/1999/xlink" x="0px" y="0px"
	 width="100%" viewBox="0 0 735 378" enable-background="new 0 0 735 378" xml:space="preserve">
<path fill="#000000" opacity="1.000000" stroke="none" 
	d="
M736.000000,197.000000 
	C736.000000,257.654968 736.000000,318.309937 736.000000,378.982452 
	C491.058929,378.982452 246.117844,378.982452 1.088381,378.982452 
	C1.088381,253.083267 1.088381,127.166443 1.088381,1.124813 
	C245.999954,1.124813 490.999969,1.124813 736.000000,1.124813 
	C736.000000,61.429810 736.000000,121.751022 735.653809,182.802307 
	C734.094727,180.597137 732.925720,177.642838 731.660278,174.730423 
	C728.378052,167.176407 725.033386,159.655807 717.099487,155.557358 
	C716.947571,155.653549 717.139832,155.957489 717.147217,155.632202 
	C716.785339,155.156784 716.415955,155.006638 716.203003,154.902374 
	C716.359375,154.948242 716.451172,154.635498 716.311768,154.347946 
	C715.231934,153.221985 714.291504,152.383575 713.195068,151.595245 
	C713.039062,151.645309 713.139038,151.957382 713.144653,151.632721 
	C712.781311,151.158264 712.412292,151.008469 712.173218,150.946899 
	C712.303162,151.035110 712.479675,150.775238 712.346863,150.440994 
	C708.557800,146.559555 704.901611,143.012344 701.094849,139.562042 
	C700.944214,139.658920 701.137878,139.960205 701.144531,139.635193 
	C700.782104,139.159592 700.413086,139.009018 700.042419,138.907257 
	C700.040771,138.956070 700.138428,138.959213 700.144958,138.634277 
	C699.782532,138.158951 699.413513,138.008530 699.042969,137.906769 
	C699.041321,137.955444 699.138672,137.958527 699.144897,137.633728 
	C698.782104,137.158707 698.413208,137.008484 698.042603,136.906906 
	C698.040955,136.955551 698.138245,136.958740 698.143982,136.634079 
	C697.780823,136.159332 697.411865,136.009232 697.041321,135.907898 
	C697.039673,135.956665 697.137207,135.959900 697.142517,135.635345 
	C696.778992,135.160629 696.410217,135.010483 696.172363,134.949371 
	C696.303284,135.038406 696.481445,134.776520 696.347107,134.443024 
	C693.685669,131.270325 691.305359,128.282211 688.603943,125.619949 
	C680.594604,117.726677 672.351990,110.068390 664.402649,102.116241 
	C656.808655,94.519501 649.584351,86.552956 641.984497,78.962296 
	C634.029480,71.016937 625.704712,63.441650 617.755737,55.490463 
	C609.925415,47.657978 602.460022,39.460777 594.633728,31.624079 
	C591.740967,28.727400 588.276245,26.401867 585.072998,23.871483 
	C585.073608,23.927124 585.184875,23.925880 585.095215,23.580692 
	C578.335999,13.198982 568.572266,8.540032 556.636902,7.039616 
	C555.884399,7.020121 555.452942,7.058555 554.586060,7.026273 
	C552.101013,7.005338 550.051208,7.055117 547.672363,7.047446 
	C546.901489,7.030588 546.459656,7.071179 545.662903,7.050754 
	C543.748779,7.532438 542.189697,8.075140 540.709473,8.607503 
	C540.788391,8.597164 540.767578,8.439380 540.377197,8.529771 
	C538.558044,8.985260 537.092957,9.246164 535.706177,9.731114 
	C515.608337,16.759041 509.588776,42.664528 517.533386,58.131626 
	C519.399109,61.763916 522.565063,64.728302 525.200806,68.057640 
	C525.268738,68.115326 525.413208,68.010902 525.587036,68.318726 
	C526.165161,68.844337 526.569336,69.062134 526.920105,69.171127 
	C526.866638,69.062309 526.649048,69.169235 526.801819,69.405823 
	C527.306763,69.747047 527.658936,69.851692 528.187500,70.246170 
	C533.038818,75.426834 537.710266,80.321053 542.389404,85.207878 
	C558.208618,101.729431 573.996765,118.280846 589.869324,134.751007 
	C595.591553,140.688675 594.463013,148.157028 586.619385,152.185608 
	C584.072571,152.465363 581.948425,152.911835 579.824036,152.912933 
	C511.542664,152.948029 443.261322,152.934021 374.979950,152.945190 
	C364.656616,152.946869 354.333282,153.035660 343.603271,152.999969 
	C336.081726,153.948944 329.384155,155.870499 324.589783,161.848724 
	C324.661804,162.007294 324.978943,161.863297 324.654053,161.868240 
	C324.175079,162.243393 324.020966,162.613617 323.924805,162.985779 
	C323.982727,162.987732 323.986603,162.871857 323.662537,162.878265 
	C323.185699,163.254700 323.032959,163.624741 322.956665,163.985260 
	C323.033081,163.975723 323.014099,163.822876 322.711853,163.791412 
	C322.004272,164.191406 321.598938,164.622864 320.897400,165.223694 
	C308.675415,177.812744 308.223755,204.743469 322.253510,215.270554 
	C326.779144,218.641861 331.173889,221.704010 335.797119,224.697266 
	C336.025665,224.628342 335.887878,224.171249 336.090668,224.495667 
	C340.158661,225.548492 344.022827,226.906052 347.889221,226.912354 
	C424.323975,227.036636 500.759033,226.984039 577.193909,227.062012 
	C581.126099,227.066025 585.057434,227.916077 589.015747,228.233612 
	C589.042297,228.095001 588.765076,228.041916 588.869995,228.296753 
	C589.315247,228.661957 589.655457,228.772308 590.252930,229.154236 
	C595.110840,235.361725 594.439270,240.805389 589.170349,245.867584 
	C584.208008,250.635162 579.706787,255.882675 574.709595,260.954712 
	C574.156189,261.262238 573.896057,261.534119 573.745544,261.791321 
	C573.855225,261.776611 573.825684,261.557312 573.521118,261.667603 
	C573.018433,262.143951 572.820312,262.509979 572.735840,262.792969 
	C572.849487,262.709930 572.683228,262.482697 572.341675,262.581421 
	C568.495300,266.353302 564.990601,270.026459 561.600647,273.762115 
	C561.715454,273.824615 561.840332,273.594971 561.530029,273.690796 
	C561.000916,274.145905 560.782043,274.505249 560.705078,274.859528 
	C560.847046,274.854492 560.836853,274.570618 560.531128,274.679657 
	C560.005981,275.148315 559.786621,275.507904 559.715881,275.829865 
	C559.864502,275.792236 559.789124,275.495087 559.506226,275.604614 
	C558.842896,276.166260 558.462585,276.618408 558.044922,277.038818 
	C558.007507,277.007141 558.070862,277.081879 557.801392,277.214569 
	C557.190369,277.832489 556.848816,278.317719 556.647156,278.819092 
	C556.787048,278.835266 556.819275,278.555481 556.514648,278.662903 
	C556.022583,279.137939 555.835083,279.505554 555.751953,279.779572 
	C555.856262,279.685974 555.668945,279.477417 555.327576,279.576263 
	C552.151123,282.679047 549.316101,285.683014 546.591064,288.753601 
	C546.701111,288.820221 546.834290,288.600098 546.522339,288.690002 
	C545.996521,289.140686 545.782715,289.501495 545.706604,289.857056 
	C545.844299,289.851837 545.833618,289.576508 545.525513,289.679871 
	C544.995178,290.141998 544.772888,290.500732 544.695923,290.853546 
	C544.841187,290.847626 544.829163,290.557068 544.525635,290.671997 
	C544.001099,291.145935 543.780029,291.504974 543.704285,291.848328 
	C543.849609,291.832672 543.818237,291.542053 543.518066,291.663849 
	C542.998718,292.145111 542.779541,292.504608 542.705444,292.847595 
	C542.850525,292.831085 542.817383,292.540924 542.517944,292.663086 
	C542.010193,293.147949 541.801941,293.510651 541.732483,293.842590 
	C541.871277,293.811859 541.809692,293.534393 541.510376,293.655457 
	C541.014099,294.142273 540.817200,294.508026 540.731812,294.789795 
	C540.843445,294.705750 540.675232,294.482635 540.334473,294.581512 
	C536.491577,298.357269 532.989441,302.034149 529.609985,305.764465 
	C529.732727,305.817902 529.839539,305.572388 529.533203,305.681213 
	C529.000793,306.147888 528.774780,306.505737 528.697021,306.857605 
	C528.845276,306.851593 528.833130,306.555054 528.532654,306.675415 
	C528.006958,307.152496 527.781799,307.509247 527.703003,307.852356 
	C527.849365,307.838715 527.821960,307.545959 527.525146,307.671448 
	C527.005005,308.152893 526.781738,308.508881 526.703613,308.850098 
	C526.848633,308.835327 526.818848,308.545288 526.522766,308.671448 
	C526.009277,309.155457 525.791931,309.513275 525.655823,309.807129 
	C525.737061,309.743195 525.609131,309.580719 525.309387,309.738098 
	C519.061646,315.690674 517.619995,323.490295 516.585999,331.062012 
	C515.197388,341.230347 516.898560,351.054291 523.670776,359.305939 
	C523.706360,359.202362 523.499084,359.131348 523.551514,359.494873 
	C528.734253,365.890259 535.232117,369.627991 543.175049,371.569641 
	C544.291199,371.801331 545.150452,371.835876 546.254272,372.082733 
	C547.309814,372.439545 548.120667,372.584015 549.359985,372.802124 
	C551.522705,372.833038 553.256958,372.790314 555.390747,372.812500 
	C558.947876,371.975464 562.105469,371.073425 565.176880,370.090485 
	C565.090576,370.009552 564.928833,370.182129 565.342773,370.161285 
	C566.281738,369.659088 566.806885,369.177765 567.103516,368.800842 
	C567.095154,369.010742 567.315430,369.116211 567.837891,369.334717 
	C569.544495,368.693329 570.948792,367.938934 572.282715,367.079712 
	C572.212341,366.974854 572.002625,367.115540 572.334167,367.114807 
	C572.847961,366.778961 573.030151,366.443848 573.149963,366.365021 
	C573.258362,366.662994 573.429260,366.704681 573.924133,366.639160 
	C575.615906,365.418274 576.983704,364.304565 578.266724,363.194244 
	C578.181885,363.197632 578.188782,363.367279 578.527344,363.265656 
	C581.364502,360.500153 583.862976,357.836304 586.289001,355.067780 
	C586.216553,354.963135 586.007263,355.107971 586.311584,355.078461 
	C586.780029,354.701935 586.944092,354.354889 587.057922,354.007629 
	C587.007629,354.007385 587.007263,354.107941 587.311523,354.078400 
	C587.779907,353.701843 587.943970,353.354828 588.057861,353.007538 
	C588.007629,353.007294 588.007202,353.107697 588.311401,353.078003 
	C588.779541,352.701385 588.943604,352.354462 589.057495,352.007202 
	C589.007385,352.006927 589.006836,352.107178 589.310791,352.077271 
	C589.778870,351.700623 589.942932,351.353851 590.057007,351.006958 
	C590.007019,351.006866 590.006897,351.106934 590.310547,351.076660 
	C590.778381,350.699982 590.942627,350.353607 591.056946,350.006958 
	C591.007019,350.006653 591.006592,350.106506 591.310120,350.076111 
	C591.778015,349.699554 591.942383,349.353363 592.035400,349.115051 
	C591.963989,349.222931 592.179688,349.365845 592.518311,349.264801 
	C595.022156,346.832794 597.187439,344.501831 599.282471,342.068481 
	C599.212219,341.966125 599.007446,342.106567 599.310181,342.074951 
	C599.777283,341.697906 599.941650,341.352509 600.056519,341.006714 
	C600.006958,341.006287 600.006348,341.105286 600.308716,341.073334 
	C600.775635,340.696289 600.940186,340.351196 601.055420,340.005920 
	C601.006042,340.005768 601.005798,340.104523 601.307983,340.072418 
	C601.774902,339.695557 601.939697,339.350800 602.055176,339.005737 
	C602.005798,339.005432 602.005310,339.104034 602.307495,339.071930 
	C602.774475,338.695160 602.939331,338.350494 603.054932,338.005524 
	C603.005615,338.005219 603.005066,338.103790 603.307190,338.071686 
	C603.774170,337.694916 603.939026,337.350250 604.054565,337.005219 
	C604.005310,337.004852 604.004761,337.103394 604.306824,337.071198 
	C604.773682,336.694336 604.938477,336.349670 605.053284,335.998413 
	C605.003235,335.991821 604.989929,336.091888 605.329224,336.048035 
	C605.969727,335.666962 606.270874,335.329773 606.844360,334.850281 
	C610.082336,331.657623 613.048096,328.607239 616.328979,325.326019 
	C616.800415,324.384979 616.956726,323.674744 617.043701,322.973145 
	C616.974243,322.981781 616.991333,323.120728 617.331421,323.124268 
	C617.850281,322.776276 618.029114,322.424713 618.128113,322.060303 
	C618.048279,322.047424 618.022644,322.207092 618.421753,322.303711 
	C618.962158,321.952942 619.103577,321.505524 619.152344,321.051422 
	C619.059692,321.044739 619.046448,321.229980 619.447693,321.325104 
	C619.980347,320.964294 620.111755,320.508362 620.156006,320.065308 
	C620.068787,320.078186 620.094666,320.252594 620.459717,320.307434 
	C620.924866,319.903839 621.024963,319.445374 621.052917,318.986389 
	C620.980774,318.985870 620.979614,319.130096 621.247925,319.178162 
	C621.865479,318.827271 622.214661,318.428314 622.798889,317.764801 
	C626.352783,314.198792 629.671692,310.897369 633.322266,307.434143 
	C633.827148,306.863312 634.000488,306.454285 634.097473,306.041382 
	C634.021179,306.037567 634.013672,306.190186 634.416748,306.290649 
	C634.958923,305.943298 635.098022,305.495483 635.150513,305.061829 
	C635.063843,305.075958 635.092224,305.249207 635.456909,305.306396 
	C635.922485,304.905334 636.023376,304.447144 636.061523,303.991211 
	C635.998718,303.993530 636.003174,304.119110 636.315674,304.096741 
	C636.787109,303.714447 636.946167,303.354523 637.048218,302.992859 
	C636.991211,302.991150 636.987549,303.105164 637.321716,303.102661 
	C637.837585,302.757843 638.019287,302.415497 638.127075,302.049316 
	C638.053162,302.025482 638.005554,302.173309 638.412109,302.274414 
	C638.956909,301.930389 639.095215,301.485260 639.142090,301.029938 
	C639.050659,301.019745 639.030396,301.202606 639.434998,301.302368 
	C639.969849,300.948029 640.100098,300.493896 640.139709,300.030365 
	C640.049133,300.020996 640.030579,300.202148 640.435913,300.302856 
	C640.971802,299.949615 641.102356,299.495697 641.142334,299.031921 
	C641.051819,299.022095 641.032227,299.203186 641.438354,299.304749 
	C641.974609,298.951904 642.104736,298.497498 642.144165,298.033356 
	C642.053589,298.023621 642.034241,298.204865 642.440796,298.306885 
	C642.976501,297.953552 643.105713,297.498230 643.144165,297.033630 
	C643.053467,297.024384 643.035156,297.205811 643.441772,297.307861 
	C643.976868,296.953827 644.105286,296.497711 644.142944,296.032806 
	C644.052185,296.023987 644.034668,296.205597 644.441162,296.307587 
	C644.975586,295.952942 645.103577,295.496338 645.221069,295.362823 
	C645.426025,295.692963 645.641357,295.699982 646.128662,295.537537 
	C647.381165,293.959137 648.361755,292.550201 649.265076,291.046326 
	C649.187866,290.951355 648.997925,291.105682 649.304504,291.076416 
	C649.776123,290.697693 649.941162,290.348236 650.052490,289.998535 
	C649.998718,289.998322 649.998047,290.105804 650.304626,290.076508 
	C650.776184,289.697723 650.941162,289.348206 651.052368,288.998413 
	C650.998657,288.998169 650.997986,289.105652 651.304504,289.076202 
	C651.775940,288.697235 651.940796,288.347717 652.051880,287.997925 
	C651.998169,287.997620 651.997437,288.105103 652.303833,288.075439 
	C652.775208,287.696350 652.940063,287.346924 653.051270,286.997284 
	C652.997559,286.997070 652.996948,287.104401 653.302979,287.074341 
	C653.774109,286.695221 653.939270,286.346222 654.027893,286.100464 
	C653.951416,286.203705 654.157776,286.356781 654.497192,286.255920 
	C658.004333,282.817596 661.172119,279.480133 664.263916,276.046692 
	C664.187927,275.950775 663.995972,276.102722 664.300659,276.071106 
	C664.771484,275.692108 664.937561,275.344696 665.050415,274.997070 
	C664.997131,274.996918 664.996582,275.103424 665.301392,275.071991 
	C665.772278,274.692993 665.938354,274.345398 666.051025,273.997620 
	C665.997742,273.997437 665.997192,274.104095 666.302124,274.072693 
	C666.772949,273.693512 666.938782,273.345734 667.051270,272.997711 
	C666.997925,272.997437 666.997253,273.104187 667.302185,273.072571 
	C667.772766,272.693146 667.938416,272.345306 668.050781,271.997131 
	C667.997437,271.996796 667.996704,272.103485 668.301392,272.071472 
	C668.771667,271.691803 668.937256,271.344086 669.049622,270.996033 
	C668.996399,270.995697 668.995605,271.102112 669.299927,271.069580 
	C669.769897,270.689789 669.935608,270.342468 670.048218,269.994934 
	C669.995239,269.994751 669.994690,270.100769 670.298462,270.067749 
	C670.768250,269.688080 670.934326,269.341400 671.024597,269.096497 
	C670.948853,269.198303 671.152283,269.349976 671.489990,269.249390 
	C673.663757,267.145599 675.499878,265.142365 677.260315,263.043640 
	C677.184692,262.948120 676.993652,263.099274 677.296265,263.064667 
	C677.765686,262.684631 677.932373,262.339172 678.046387,261.993500 
	C677.993591,261.993256 677.992981,262.098755 678.295227,262.063538 
	C678.764526,261.683289 678.931580,261.338226 679.045776,260.992859 
	C678.992859,260.992554 678.992249,261.098297 679.294373,261.063019 
	C679.763855,260.682861 679.931213,260.337952 680.045715,259.992859 
	C679.992859,259.992676 679.992310,260.098389 680.294495,260.063232 
	C680.764038,259.683228 680.931458,259.338348 681.046021,258.993286 
	C680.993225,258.993134 680.992798,259.098694 681.295044,259.063660 
	C681.764526,258.683655 681.931763,258.338715 682.046326,257.993591 
	C681.993652,257.993439 681.993164,258.098816 682.295349,258.063660 
	C682.764587,257.683502 682.931702,257.338531 683.046143,256.993408 
	C682.993469,256.993195 682.992859,257.098541 683.294861,257.062927 
	C683.763977,256.682434 683.931091,256.337555 684.045410,255.992493 
	C683.992615,255.992279 683.992065,256.097839 684.293518,256.061127 
	C684.762268,255.679993 684.929565,255.335571 685.043945,254.990814 
	C684.991028,254.990463 684.990234,255.096375 685.290894,255.058319 
	C685.759583,254.676758 685.927673,254.333221 686.006104,254.051559 
	C685.916443,254.113419 686.039978,254.292847 686.365234,254.166931 
	C687.309937,253.365097 687.929504,252.689178 688.815063,251.877975 
	C690.727295,250.011292 692.373596,248.279922 694.334717,246.318985 
	C694.804993,245.382019 694.960327,244.674606 695.008789,244.033691 
	C694.901855,244.100189 695.034790,244.314041 695.402710,244.262756 
	C696.317932,243.496979 696.865356,242.782486 697.273193,242.019257 
	C697.133606,241.970490 697.036133,242.249603 697.405884,242.223404 
	C698.322998,241.488251 698.870361,240.779282 699.301636,239.983307 
	C699.185608,239.896317 699.011536,240.128357 699.327148,240.108994 
	C699.799744,239.726364 699.956787,239.363098 700.050903,238.997894 
	C699.988037,238.995972 699.984131,239.121750 700.257263,239.160370 
	C700.886475,238.797699 701.242615,238.396423 701.831787,237.733200 
	C705.046204,234.516907 708.027588,231.562546 711.318237,228.435486 
	C711.786072,227.841263 711.944763,227.419739 711.998169,227.100800 
	C711.892883,227.203400 712.097900,227.414154 712.448425,227.327805 
	C713.971680,225.851532 715.144409,224.461624 716.229065,223.007996 
	C716.140991,222.944275 716.013550,223.120392 716.325317,223.100281 
	C716.798523,222.725159 716.959961,222.370132 717.015564,222.108551 
	C716.909729,222.201996 717.096497,222.413803 717.448181,222.323090 
	C725.211975,216.867676 730.724854,210.222687 732.225769,200.744522 
	C732.244751,200.628616 732.013000,200.590500 732.310669,200.418564 
	C732.789001,199.839340 732.969604,199.432068 733.268921,198.779266 
	C733.496216,197.999588 733.604797,197.465439 734.132202,196.710846 
	C735.033997,196.660278 735.517029,196.830139 736.000000,197.000000 
M237.026184,167.972610 
	C237.026184,167.972610 237.140198,167.973907 237.128937,167.325684 
	C236.759995,167.170959 236.391052,167.016235 236.190338,167.055679 
	C236.190338,167.055679 236.384537,166.887527 236.191666,166.183319 
	C230.739838,158.580658 222.789963,155.984253 213.055679,154.984634 
	C197.033356,155.018234 181.011032,155.051819 164.175995,154.930222 
	C162.239716,155.257431 160.247696,155.394531 158.376312,155.943115 
	C147.344757,159.176895 139.105957,165.540512 135.582535,176.759308 
	C135.582535,176.759308 135.494171,176.568512 134.930420,177.029495 
	C134.167374,181.733673 133.404343,186.437866 132.487427,191.947983 
	C132.538162,193.583450 132.588898,195.218903 132.418610,197.676895 
	C133.968063,209.269257 137.388992,219.760239 149.315948,225.987717 
	C151.447983,227.058365 153.580017,228.129013 156.296890,229.701508 
	C160.846146,230.451218 165.382660,231.739563 169.947098,231.847580 
	C182.600494,232.146973 195.268875,232.119171 207.923996,231.860992 
	C211.957489,231.778717 215.967987,230.568588 220.551422,229.900192 
	C221.063065,229.724045 221.574692,229.547897 222.721405,229.210861 
	C223.245789,228.848083 223.770187,228.485321 224.099625,227.974380 
	C224.099625,227.974380 223.951401,228.169296 224.654587,228.190918 
	C225.245605,227.849487 225.836609,227.508057 227.078842,227.034744 
	C234.801758,222.466995 241.061584,216.484879 243.892090,207.787506 
	C247.276566,197.387955 248.422531,186.917648 242.536133,176.303497 
	C242.358154,176.009293 242.180176,175.715088 242.227997,175.327606 
	C242.227997,175.327606 242.160767,175.092743 242.161835,174.393692 
	C241.527313,173.449203 240.892807,172.504715 240.120972,171.809326 
	C240.120972,171.809326 240.370117,171.946625 240.234909,171.266891 
	C239.580109,170.362930 238.925323,169.458969 237.996262,168.699341 
	C237.996262,168.699341 238.140564,168.973618 238.129715,168.327652 
	C237.762329,168.171295 237.394928,168.014938 237.026184,167.972610 
M72.035187,164.318115 
	C71.685989,164.015625 71.336784,163.713120 70.956314,163.119614 
	C70.956314,163.119614 70.693581,162.990662 70.321587,162.476349 
	C69.537842,162.276688 68.754089,162.077011 68.274170,162.054489 
	C68.274170,162.054489 68.451340,161.750671 68.097847,161.135773 
	C53.505028,151.666672 38.313499,153.053680 23.198387,159.277786 
	C19.875595,160.646042 17.499405,164.313095 14.869157,167.037445 
	C14.869157,167.037445 14.985093,166.855606 14.327723,166.854324 
	C14.168143,167.227692 14.008564,167.601044 13.976662,167.972794 
	C13.976662,167.972794 13.975035,167.845123 13.315591,167.841904 
	C13.157437,168.216782 12.999283,168.591660 13.005127,168.677078 
	C13.005127,168.677078 12.715672,168.513062 12.096337,168.832901 
	C11.267521,170.187454 10.438704,171.541992 9.796761,173.056107 
	C9.796761,173.056107 9.956340,172.869247 9.202071,173.056595 
	C9.049605,173.534515 8.897140,174.012436 8.912368,174.398941 
	C8.912368,174.398941 8.820934,174.231262 8.217695,174.743195 
	C7.733067,176.231430 7.248439,177.719666 6.753012,179.404266 
	C6.753012,179.404266 6.949387,179.415100 6.462488,180.012009 
	C5.904911,183.335892 5.347333,186.659760 4.577942,190.842239 
	C4.647634,192.894379 4.717326,194.946533 4.579709,197.808395 
	C3.939805,206.996582 13.195043,223.808960 23.021744,226.113556 
	C23.021744,226.113556 22.792086,226.068100 23.126343,226.655869 
	C23.762205,226.798416 24.398067,226.940964 24.837168,226.966263 
	C24.837168,226.966263 24.719877,227.162994 25.191113,227.716095 
	C27.785753,228.624466 30.380392,229.532837 33.380543,230.777344 
	C33.898846,230.774216 34.417145,230.771103 35.799206,230.910904 
	C42.602879,230.659500 49.406555,230.408112 56.058643,230.077957 
	C56.058643,230.077957 55.979919,230.229568 56.508415,230.138412 
	C56.656528,230.038330 56.804646,229.938232 57.649139,229.886398 
	C58.109562,229.831573 58.569981,229.776764 59.689728,229.712967 
	C61.223751,228.865494 62.757771,228.018036 64.061829,227.112518 
	C64.061829,227.112518 64.003822,227.342499 64.703514,227.206253 
	C65.603088,226.529343 66.502663,225.852432 67.933762,224.691910 
	C70.289246,222.485992 72.644730,220.280090 75.022217,218.264297 
	C75.351685,217.759262 75.681152,217.254227 76.738983,216.157654 
	C77.187874,215.337357 77.636757,214.517044 78.609894,213.347733 
	C79.806778,209.894928 81.003670,206.442123 82.445267,202.335129 
	C82.525131,201.876389 82.604988,201.417664 83.071854,200.515457 
	C83.088081,200.319946 83.104317,200.124420 83.382103,199.173630 
	C83.317757,197.297653 83.253410,195.421692 83.256340,193.521271 
	C83.256340,193.521271 83.209007,193.468552 83.408432,192.587341 
	C83.333176,191.393661 83.257919,190.199982 83.375412,188.221985 
	C82.298553,179.641525 80.140686,171.544708 72.961174,165.721710 
	C72.961174,165.721710 73.113304,166.001190 73.070580,165.373474 
	C72.712410,165.213089 72.354240,165.052689 71.980721,165.004013 
	C71.980721,165.004013 72.092445,165.019394 72.035187,164.318115 
z"/>
<path fill="#731CA7" opacity="1.000000" stroke="none" 
	d="
M525.413208,68.010902 
	C525.413208,68.010902 525.268738,68.115326 525.048950,67.735703 
	C524.155334,66.208641 523.598022,64.971039 522.790405,63.927200 
	C508.661377,45.666954 517.623291,16.839264 537.006592,10.812573 
	C538.374023,10.387403 539.519104,9.247135 540.767578,8.439380 
	C540.767578,8.439380 540.788391,8.597164 541.096802,8.645267 
	C542.942749,8.166167 544.480347,7.638966 546.017883,7.111768 
	C546.459656,7.071179 546.901489,7.030588 548.011047,7.173347 
	C550.793030,7.270129 552.907227,7.183560 555.021423,7.096990 
	C555.452942,7.058555 555.884399,7.020121 556.876831,7.288820 
	C567.332764,10.703743 576.245789,15.435061 583.373108,23.168036 
	C583.776428,23.605579 584.571899,23.681591 585.184875,23.925880 
	C585.184875,23.925880 585.073608,23.927124 585.180664,24.203865 
	C586.705261,26.303936 587.947388,28.302380 589.566345,29.924755 
	C622.157227,62.583931 654.766846,95.224533 687.462524,127.778687 
	C690.138489,130.443054 693.459961,132.459167 696.481445,134.776520 
	C696.481445,134.776520 696.303284,135.038406 696.366394,135.121002 
	C696.665405,135.455673 696.901306,135.707779 697.137207,135.959900 
	C697.137207,135.959900 697.039673,135.956665 697.234741,136.080078 
	C697.666016,136.455246 697.902161,136.706985 698.138245,136.958740 
	C698.138245,136.958740 698.040955,136.955551 698.235596,137.079529 
	C698.666382,137.455170 698.902527,137.706848 699.138672,137.958527 
	C699.138672,137.958527 699.041321,137.955444 699.236023,138.079407 
	C699.666626,138.455322 699.902527,138.707275 700.138428,138.959229 
	C700.138428,138.959213 700.040771,138.956070 700.235840,139.079712 
	C700.666565,139.455643 700.902222,139.707916 701.137878,139.960205 
	C701.137878,139.960205 700.944214,139.658920 701.230469,139.894470 
	C705.171082,143.678436 708.825378,147.226822 712.479675,150.775238 
	C712.479675,150.775238 712.303162,151.035110 712.366760,151.118896 
	C712.666565,151.454239 712.902832,151.705811 713.139038,151.957382 
	C713.139038,151.957382 713.039062,151.645309 713.276855,151.928726 
	C714.493530,153.019928 715.472351,153.827713 716.451172,154.635498 
	C716.451172,154.635498 716.359375,154.948242 716.396423,155.074539 
	C716.668945,155.453049 716.904419,155.705261 717.139832,155.957489 
	C717.139832,155.957489 716.947571,155.653549 717.234863,155.890472 
	C717.761292,156.562836 717.932434,157.056717 718.249390,157.425201 
	C725.006958,165.279663 731.058594,173.496521 733.145386,184.008987 
	C733.371887,185.149933 735.014343,186.009766 736.000000,187.000000 
	C736.000000,188.714355 736.000000,190.428711 735.693115,192.606018 
	C734.828674,194.356400 734.270996,195.643845 733.713379,196.931290 
	C733.604797,197.465439 733.496216,197.999588 733.063965,199.028946 
	C732.497864,199.879608 732.255432,200.235062 732.013000,200.590515 
	C732.013000,200.590500 732.244751,200.628616 732.006653,201.027649 
	C726.877869,208.422394 721.987183,215.418091 717.096497,222.413803 
	C717.096497,222.413803 716.909729,222.201996 716.827393,222.289215 
	C716.501282,222.624420 716.257446,222.872406 716.013550,223.120392 
	C716.013550,223.120392 716.140991,222.944275 715.932434,223.175995 
	C714.515259,224.743195 713.306580,226.078690 712.097900,227.414154 
	C712.097900,227.414154 711.892883,227.203400 711.804443,227.360809 
	C711.480286,227.881546 711.244629,228.244873 711.008972,228.608185 
	C708.027588,231.562546 705.046204,234.516907 701.626831,237.871536 
	C700.787354,238.555130 700.385742,238.838440 699.984131,239.121765 
	C699.984131,239.121750 699.988037,238.995972 699.867920,239.186523 
	C699.502319,239.627487 699.256958,239.877914 699.011536,240.128357 
	C699.011536,240.128357 699.185608,239.896317 699.028442,240.167114 
	C698.259644,241.041809 697.647888,241.645721 697.036133,242.249603 
	C697.036133,242.249603 697.133606,241.970490 696.999878,242.207275 
	C696.255676,243.067368 695.645203,243.690704 695.034790,244.314041 
	C695.034790,244.314041 694.901855,244.100189 694.858276,244.348923 
	C694.549744,245.247955 694.284790,245.898254 694.019897,246.548538 
	C692.373596,248.279922 690.727295,250.011292 688.512329,252.046341 
	C687.309143,252.997635 686.674561,253.645248 686.039978,254.292847 
	C686.039978,254.292847 685.916443,254.113419 685.826538,254.240631 
	C685.487793,254.610687 685.239014,254.853516 684.990234,255.096375 
	C684.990234,255.096375 684.991028,254.990463 684.863220,255.178619 
	C684.487610,255.610443 684.239868,255.854141 683.992065,256.097839 
	C683.992065,256.097839 683.992615,255.992279 683.864014,256.179657 
	C683.487854,256.610870 683.240356,256.854706 682.992859,257.098511 
	C682.992859,257.098541 682.993469,256.993195 682.864258,257.180145 
	C682.487793,257.610992 682.240479,257.854889 681.993164,258.098816 
	C681.993164,258.098816 681.993652,257.993439 681.864502,258.180481 
	C681.487793,258.611267 681.240295,258.854980 680.992798,259.098694 
	C680.992798,259.098694 680.993225,258.993134 680.864502,259.180542 
	C680.487976,259.611420 680.240173,259.854919 679.992310,260.098389 
	C679.992310,260.098389 679.992859,259.992676 679.864441,260.180298 
	C679.488098,260.611389 679.240173,260.854858 678.992249,261.098297 
	C678.992249,261.098297 678.992859,260.992554 678.864319,261.179993 
	C678.488220,261.611237 678.240601,261.855011 677.992981,262.098755 
	C677.992981,262.098755 677.993591,261.993256 677.864441,262.180145 
	C677.488098,262.611115 677.240906,262.855194 676.993652,263.099304 
	C676.993652,263.099274 677.184692,262.948120 676.911621,263.134247 
	C674.809753,265.330261 672.981018,267.340118 671.152344,269.349976 
	C671.152283,269.349976 670.948853,269.198303 670.842285,269.282837 
	C670.488708,269.611877 670.241699,269.856323 669.994690,270.100769 
	C669.994690,270.100769 669.995239,269.994751 669.865845,270.181396 
	C669.489502,270.612732 669.242554,270.857422 668.995605,271.102112 
	C668.995605,271.102112 668.996399,270.995697 668.866333,271.181702 
	C668.489746,271.612946 668.243225,271.858215 667.996704,272.103485 
	C667.996704,272.103485 667.997437,271.996796 667.866760,272.182129 
	C667.489807,272.613037 667.243530,272.858612 666.997253,273.104187 
	C666.997253,273.104187 666.997925,272.997437 666.866943,273.182373 
	C666.489685,273.612915 666.243469,273.858490 665.997192,274.104095 
	C665.997192,274.104095 665.997742,273.997437 665.866821,274.182434 
	C665.489502,274.612762 665.243042,274.858093 664.996582,275.103424 
	C664.996582,275.103424 664.997131,274.996918 664.866577,275.182312 
	C664.489319,275.612701 664.242676,275.857697 663.995972,276.102722 
	C663.995972,276.102722 664.187927,275.950775 663.915527,276.136841 
	C660.481384,279.667511 657.319580,283.012146 654.157776,286.356781 
	C654.157776,286.356781 653.951416,286.203705 653.844116,286.285797 
	C653.490173,286.613403 653.243530,286.858887 652.996948,287.104401 
	C652.996948,287.104401 652.997559,286.997070 652.867432,287.182800 
	C652.490662,287.614044 652.244080,287.859589 651.997437,288.105103 
	C651.997437,288.105103 651.998169,287.997620 651.867615,288.182922 
	C651.490723,288.614044 651.244324,288.859863 650.997986,289.105652 
	C650.997986,289.105652 650.998657,288.998169 650.867798,289.183167 
	C650.490601,289.614075 650.244324,289.859955 649.998047,290.105804 
	C649.998047,290.105804 649.998718,289.998322 649.867798,290.183228 
	C649.490479,290.613983 649.244202,290.859802 648.997925,291.105652 
	C648.997925,291.105682 649.187866,290.951355 648.915527,291.146667 
	C647.714417,292.797028 646.785583,294.252014 645.856750,295.707031 
	C645.641357,295.699982 645.426025,295.692963 645.056519,295.589355 
	C644.613159,295.730408 644.323914,295.968018 644.034668,296.205627 
	C644.034668,296.205597 644.052185,296.023987 643.977478,296.258545 
	C643.613586,296.730652 643.324341,296.968231 643.035156,297.205811 
	C643.035156,297.205811 643.053467,297.024384 642.977966,297.258728 
	C642.613037,297.730316 642.323669,297.967590 642.034241,298.204865 
	C642.034241,298.204865 642.053589,298.023621 641.977295,298.257874 
	C641.611328,298.729156 641.321777,298.966156 641.032227,299.203186 
	C641.032227,299.203186 641.051819,299.022095 640.975098,299.256226 
	C640.609070,299.727631 640.319824,299.964905 640.030579,300.202148 
	C640.030579,300.202148 640.049133,300.020996 639.972412,300.254578 
	C639.607300,300.726318 639.318848,300.964478 639.030396,301.202606 
	C639.030396,301.202606 639.050659,301.019745 638.973022,301.255981 
	C638.598755,301.719238 638.302124,301.946289 638.005554,302.173309 
	C638.005554,302.173309 638.053162,302.025482 637.924255,302.220581 
	C637.526062,302.645508 637.256836,302.875336 636.987549,303.105164 
	C636.987549,303.105164 636.991211,302.991150 636.866943,303.182648 
	C636.496155,303.622467 636.249695,303.870789 636.003174,304.119110 
	C636.003174,304.119110 635.998718,303.993530 635.892212,304.203430 
	C635.554565,304.691986 635.323425,304.970581 635.092224,305.249207 
	C635.092224,305.249207 635.063843,305.075958 634.972229,305.277283 
	C634.591614,305.715790 634.302612,305.952972 634.013672,306.190186 
	C634.013672,306.190186 634.021179,306.037567 633.893311,306.294037 
	C633.507141,306.898987 633.248840,307.247467 632.990601,307.595947 
	C629.671692,310.897369 626.352783,314.198792 622.601868,317.904694 
	C621.773071,318.582794 621.376343,318.856445 620.979614,319.130096 
	C620.979614,319.130096 620.980774,318.985870 620.881470,319.197571 
	C620.553040,319.690399 620.323853,319.971497 620.094666,320.252594 
	C620.094666,320.252594 620.068787,320.078186 619.970520,320.274109 
	C619.596985,320.723328 619.321716,320.976654 619.046448,321.229980 
	C619.046448,321.229980 619.059692,321.044739 618.962463,321.255920 
	C618.584351,321.713776 618.303528,321.960449 618.022644,322.207092 
	C618.022644,322.207092 618.048279,322.047424 617.924805,322.234131 
	C617.531311,322.654144 617.261353,322.887451 616.991333,323.120728 
	C616.991333,323.120728 616.974243,322.981781 616.891296,323.289307 
	C616.543518,324.250153 616.278687,324.903503 616.013855,325.556824 
	C613.048096,328.607239 610.082336,331.657623 606.574951,335.027222 
	C605.685425,335.594879 605.337708,335.843384 604.989929,336.091888 
	C604.989929,336.091888 605.003235,335.991821 604.868042,336.179382 
	C604.490173,336.612396 604.247498,336.857880 604.004761,337.103394 
	C604.004761,337.103394 604.005310,337.004852 603.868958,337.185730 
	C603.490112,337.612335 603.247620,337.858063 603.005066,338.103790 
	C603.005066,338.103790 603.005615,338.005219 602.869019,338.185822 
	C602.490112,338.612305 602.247742,338.858185 602.005310,339.104065 
	C602.005310,339.104034 602.005798,339.005432 601.869019,339.185791 
	C601.490112,339.612305 601.247925,339.858398 601.005798,340.104523 
	C601.005798,340.104523 601.006042,340.005768 600.869507,340.186249 
	C600.490723,340.612915 600.248535,340.859100 600.006348,341.105286 
	C600.006348,341.105286 600.006958,341.006287 599.869751,341.186249 
	C599.490845,341.613007 599.249146,341.859802 599.007446,342.106567 
	C599.007446,342.106567 599.212219,341.966125 598.931519,342.150146 
	C596.493835,344.678040 594.336731,347.021942 592.179688,349.365845 
	C592.179688,349.365845 591.963989,349.222931 591.848633,349.294861 
	C591.491028,349.613373 591.248840,349.859924 591.006592,350.106506 
	C591.006592,350.106506 591.007019,350.006653 590.870117,350.186646 
	C590.491089,350.613434 590.249023,350.860199 590.006897,351.106934 
	C590.006897,351.106934 590.007019,351.006866 589.870605,351.187256 
	C589.491699,351.614136 589.249268,351.860626 589.006836,352.107178 
	C589.006836,352.107178 589.007385,352.006927 588.870850,352.187256 
	C588.491882,352.614288 588.249573,352.860992 588.007202,353.107697 
	C588.007202,353.107697 588.007629,353.007294 587.871094,353.187561 
	C587.492065,353.614532 587.249695,353.861237 587.007263,354.107941 
	C587.007263,354.107941 587.007629,354.007385 586.871216,354.187744 
	C586.492249,354.614716 586.249756,354.861328 586.007263,355.107971 
	C586.007263,355.107971 586.216553,354.963135 585.938416,355.151794 
	C583.169800,358.016083 580.679260,360.691681 578.188782,363.367279 
	C578.188782,363.367279 578.181885,363.197632 577.905029,363.247559 
	C576.285522,364.447083 574.942810,365.596710 573.600159,366.746338 
	C573.429260,366.704681 573.258362,366.662994 572.942749,366.525757 
	C572.532837,366.658630 572.267700,366.887085 572.002625,367.115540 
	C572.002625,367.115540 572.212341,366.974854 571.838257,367.144348 
	C570.154663,367.949799 568.845154,368.585754 567.535645,369.221680 
	C567.315430,369.116211 567.095154,369.010742 566.817932,369.014038 
	C566.150208,369.475922 565.539551,369.829010 564.928833,370.182129 
	C564.928833,370.182129 565.090576,370.009552 564.752075,370.099121 
	C561.272766,371.041656 558.131958,371.894623 554.991211,372.747559 
	C553.256958,372.790314 551.522705,372.833038 549.210083,372.616577 
	C547.757690,372.195068 546.883728,372.032715 546.009705,371.870392 
	C545.150452,371.835876 544.291199,371.801331 542.923950,371.322021 
	C536.110352,366.961945 529.804688,363.046631 523.499084,359.131348 
	C523.499084,359.131348 523.706360,359.202362 523.619385,358.924683 
	C523.187134,357.540619 522.963562,356.377411 522.478088,355.336334 
	C515.883911,341.194672 516.562805,327.358887 524.064880,313.749786 
	C524.772400,312.466370 525.103333,310.975342 525.609131,309.580719 
	C525.609131,309.580719 525.737061,309.743195 525.882080,309.604370 
	C526.291016,309.158783 526.554932,308.852051 526.818848,308.545288 
	C526.818848,308.545288 526.848633,308.835327 526.935669,308.650635 
	C527.289124,308.159302 527.555542,307.852631 527.821960,307.545959 
	C527.821960,307.545959 527.849365,307.838715 527.936035,307.653137 
	C528.292786,307.163361 528.562988,306.859222 528.833130,306.555054 
	C528.833130,306.555054 528.845276,306.851593 528.929993,306.659180 
	C529.289673,306.168610 529.564575,305.870514 529.839539,305.572388 
	C529.839539,305.572388 529.732727,305.817902 529.940918,305.636139 
	C533.657837,301.797119 537.166565,298.139893 540.675232,294.482666 
	C540.675232,294.482635 540.843445,294.705750 540.939270,294.577209 
	C541.293274,294.143890 541.551514,293.839142 541.809692,293.534393 
	C541.809692,293.534393 541.871277,293.811859 541.949829,293.634155 
	C542.291443,293.151276 542.554382,292.846100 542.817383,292.540924 
	C542.817383,292.540924 542.850525,292.831085 542.932983,292.644287 
	C543.283020,292.152344 543.550598,291.847198 543.818237,291.542053 
	C543.818237,291.542053 543.849609,291.832672 543.932251,291.646057 
	C544.286316,291.158630 544.557739,290.857849 544.829163,290.557068 
	C544.829163,290.557068 544.841187,290.847626 544.924194,290.653259 
	C545.282715,290.164734 545.558167,289.870636 545.833618,289.576538 
	C545.833618,289.576508 545.844299,289.851837 545.926331,289.654907 
	C546.283691,289.172028 546.558960,288.886047 546.834290,288.600098 
	C546.834290,288.600098 546.701111,288.820221 546.921265,288.625488 
	C549.984009,285.446350 552.826477,282.461884 555.668945,279.477417 
	C555.668945,279.477417 555.856262,279.685974 555.949646,279.565186 
	C556.301758,279.148071 556.560486,278.851776 556.819275,278.555481 
	C556.819275,278.555481 556.787048,278.835266 556.889038,278.645447 
	C557.350952,277.997681 557.710876,277.539795 558.070862,277.081879 
	C558.070862,277.081879 558.007507,277.007141 558.302734,276.899719 
	C558.994934,276.359894 559.392029,275.927460 559.789124,275.495056 
	C559.789124,275.495087 559.864502,275.792236 559.942505,275.628052 
	C560.292603,275.166138 560.564697,274.868378 560.836853,274.570618 
	C560.836853,274.570618 560.847046,274.854492 560.930298,274.659393 
	C561.289185,274.174530 561.564758,273.884735 561.840332,273.594971 
	C561.840332,273.594971 561.715454,273.824615 561.930786,273.633240 
	C565.658508,269.788818 569.170898,266.135742 572.683228,262.482697 
	C572.683228,262.482697 572.849487,262.709930 572.944824,262.582916 
	C573.302063,262.156372 573.563904,261.856842 573.825684,261.557312 
	C573.825684,261.557312 573.855225,261.776611 573.984253,261.660095 
	C574.409790,261.335388 574.706299,261.127197 575.002747,260.919037 
	C579.706787,255.882675 584.208008,250.635162 589.170349,245.867584 
	C594.439270,240.805389 595.110840,235.361725 590.053467,229.005417 
	C589.324341,228.396576 589.047119,228.215546 588.765076,228.041916 
	C588.765076,228.041916 589.042297,228.095001 588.828857,227.982544 
	C588.062500,227.263885 587.509583,226.657654 586.581787,225.887787 
	C583.903748,225.482590 581.600769,225.031082 579.297607,225.029922 
	C504.345825,224.992233 429.394012,224.988983 354.442261,225.036453 
	C351.985840,225.038010 349.529816,225.621338 346.670013,225.902496 
	C342.806915,225.304764 339.347382,224.738007 335.887878,224.171249 
	C335.887878,224.171249 336.025665,224.628342 335.628906,224.383484 
	C330.862305,221.079544 326.492462,218.020477 322.122589,214.961411 
	C308.223755,204.743469 308.675415,177.812744 321.127380,165.066498 
	C322.107117,164.434265 322.560608,164.128571 323.014099,163.822876 
	C323.014099,163.822876 323.033081,163.975723 323.128967,163.787140 
	C323.478760,163.356339 323.732666,163.114105 323.986603,162.871857 
	C323.986603,162.871857 323.982727,162.987732 324.106445,162.795532 
	C324.479767,162.356659 324.729370,162.109970 324.978943,161.863297 
	C324.978943,161.863297 324.661804,162.007294 324.958130,161.788681 
	C331.441528,159.062317 337.628571,156.554565 344.163696,154.207840 
	C348.974091,154.233246 353.436371,153.980972 357.898712,153.979416 
	C431.451324,153.953720 505.003998,153.979752 578.556458,153.881821 
	C581.385742,153.878052 584.213501,152.749283 587.041992,152.144714 
	C594.463013,148.157028 595.591553,140.688675 589.869324,134.751007 
	C573.996765,118.280846 558.208618,101.729431 542.389404,85.207878 
	C537.710266,80.321053 533.038818,75.426834 527.977661,70.088150 
	C527.277344,69.483261 526.963196,69.326248 526.649048,69.169235 
	C526.649048,69.169235 526.866638,69.062309 526.675049,68.942177 
	C526.126709,68.551666 525.769958,68.281288 525.413208,68.010902 
z"/>
<path fill="#6C329A" opacity="1.000000" stroke="none" 
	d="
M736.000000,186.600006 
	C735.014343,186.009766 733.371887,185.149933 733.145386,184.008987 
	C731.058594,173.496521 725.006958,165.279663 718.249390,157.425201 
	C717.932434,157.056717 717.761292,156.562836 717.386841,155.794281 
	C725.033386,159.655807 728.378052,167.176407 731.660278,174.730423 
	C732.925720,177.642838 734.094727,180.597137 735.653809,183.266174 
	C736.000000,184.066666 736.000000,185.133347 736.000000,186.600006 
z"/>
<path fill="#6C329A" opacity="1.000000" stroke="none" 
	d="
M734.132202,196.710846 
	C734.270996,195.643845 734.828674,194.356400 735.693115,193.034485 
	C736.000000,194.066666 736.000000,195.133347 736.000000,196.600006 
	C735.517029,196.830139 735.033997,196.660278 734.132202,196.710846 
z"/>
<path fill="#721CA6" opacity="1.000000" stroke="none" 
	d="
M242.160767,175.092743 
	C242.160767,175.092743 242.227997,175.327606 242.215210,175.608978 
	C242.336441,176.201340 242.470474,176.512314 242.604492,176.823288 
	C248.422531,186.917648 247.276566,197.387955 243.892090,207.787506 
	C241.061584,216.484879 234.801758,222.466995 226.430908,227.195618 
	C225.172440,227.627426 224.561920,227.898346 223.951385,228.169281 
	C223.951401,228.169296 224.099625,227.974380 223.898804,228.167847 
	C223.160767,228.698120 222.623550,229.034943 222.086334,229.371765 
	C221.574692,229.547897 221.063065,229.724045 219.924561,229.821899 
	C198.102463,229.562302 176.907257,229.380981 155.712036,229.199677 
	C153.580017,228.129013 151.447983,227.058365 148.916473,225.444702 
	C144.772278,220.093674 140.509628,215.589890 137.449310,210.379852 
	C135.069153,206.327728 134.187347,201.395462 132.639618,196.854370 
	C132.588898,195.218903 132.538162,193.583450 132.749634,191.252136 
	C133.839294,185.893692 134.666733,181.231110 135.494171,176.568512 
	C135.494171,176.568512 135.582535,176.759308 135.807007,176.626221 
	C136.726868,175.801498 137.635681,175.226120 138.085281,174.400620 
	C143.916504,163.693832 153.120087,158.066635 165.443726,156.305450 
	C182.016983,156.262207 198.121399,156.282455 214.543503,156.418732 
	C223.059723,157.856613 229.980453,161.835007 236.384537,166.887527 
	C236.384537,166.887527 236.190338,167.055679 236.290085,167.146408 
	C236.639954,167.482727 236.890076,167.728317 237.140198,167.973907 
	C237.140198,167.973907 237.026184,167.972610 237.208405,168.105316 
	C237.640610,168.483215 237.890579,168.728424 238.140564,168.973618 
	C238.140564,168.973618 237.996262,168.699341 238.205048,168.967194 
	C239.065933,170.138901 239.718018,171.042755 240.370117,171.946625 
	C240.370117,171.946625 240.120972,171.809326 240.261307,172.024017 
	C240.988007,173.190063 241.574387,174.141403 242.160767,175.092743 
z"/>
<path fill="#721CA5" opacity="1.000000" stroke="none" 
	d="
M83.182663,189.006302 
	C83.257919,190.199982 83.333176,191.393661 83.334641,193.025787 
	C83.260841,193.464249 83.189064,193.545715 83.189056,193.545715 
	C83.253410,195.421692 83.317757,197.297653 83.192535,199.679062 
	C82.882576,200.436584 82.776535,200.694733 82.684853,200.958923 
	C82.604988,201.417664 82.525131,201.876389 82.154388,202.924301 
	C80.604210,206.907898 79.344925,210.302322 78.085648,213.696747 
	C77.636757,214.517044 77.187874,215.337357 76.302734,216.576309 
	C75.577721,217.354691 75.288963,217.714432 75.000214,218.074173 
	C72.644730,220.280090 70.289246,222.485992 67.338501,225.018524 
	C65.830101,226.010910 64.916962,226.676697 64.003822,227.342499 
	C64.003822,227.342499 64.061829,227.112518 63.818298,227.164429 
	C62.059978,228.051529 60.545193,228.886749 59.030403,229.721954 
	C58.569981,229.776764 58.109562,229.831573 57.176674,229.896362 
	C56.457287,230.001007 56.215855,230.108749 55.979919,230.229568 
	C55.979919,230.229568 56.058643,230.077957 55.649643,230.097809 
	C48.472248,230.334427 41.703846,230.551193 34.935448,230.767975 
	C34.417145,230.771103 33.898846,230.774216 32.895527,230.372925 
	C29.846968,229.033325 27.283424,228.098160 24.719879,227.162994 
	C24.719877,227.162994 24.837168,226.966263 24.660755,226.889343 
	C23.920259,226.564301 23.356174,226.316193 22.792088,226.068085 
	C22.792086,226.068100 23.021744,226.113556 22.803043,225.935608 
	C18.090347,220.358215 13.131997,215.266525 9.274099,209.445511 
	C6.907086,205.874023 6.225468,201.185562 4.787018,196.998672 
	C4.717326,194.946533 4.647634,192.894379 4.857617,190.128998 
	C5.741323,186.082199 6.345354,182.748642 6.949386,179.415100 
	C6.949387,179.415100 6.753012,179.404266 7.024467,179.013550 
	C7.804259,177.158966 8.312596,175.695114 8.820934,174.231262 
	C8.820934,174.231262 8.912368,174.398941 9.021614,174.163391 
	C9.406021,173.574982 9.681183,173.222122 9.956342,172.869247 
	C9.956340,172.869247 9.796761,173.056107 10.011459,172.808090 
	C11.055996,171.211075 11.885835,169.862061 12.715672,168.513062 
	C12.715672,168.513062 13.005127,168.677078 13.119972,168.643036 
	C13.481557,168.354385 13.728294,168.099747 13.975034,167.845123 
	C13.975035,167.845123 13.976662,167.972794 14.103180,167.788208 
	C14.481499,167.354294 14.733299,167.104950 14.985096,166.855606 
	C14.985093,166.855606 14.869157,167.037445 15.072460,166.800278 
	C26.743595,156.917770 40.033878,154.456177 54.377819,157.172501 
	C59.185570,158.082962 63.766651,160.190384 68.451340,161.750671 
	C68.451340,161.750671 68.274170,162.054489 68.384277,162.098251 
	C69.227448,162.424896 69.960510,162.707779 70.693581,162.990662 
	C70.693581,162.990662 70.956314,163.119614 71.163696,163.528595 
	C71.611542,164.298187 71.851990,164.658798 72.092445,165.019394 
	C72.092445,165.019394 71.980721,165.004013 72.181732,165.125626 
	C72.626259,165.498550 72.869781,165.749878 73.113304,166.001190 
	C73.113304,166.001190 72.961174,165.721710 73.173569,166.008087 
	C76.651527,173.865082 79.917091,181.435684 83.182663,189.006302 
z"/>
<path fill="#6C329A" opacity="1.000000" stroke="none" 
	d="
M696.347107,134.443024 
	C693.459961,132.459167 690.138489,130.443054 687.462524,127.778687 
	C654.766846,95.224533 622.157227,62.583931 589.566345,29.924755 
	C587.947388,28.302380 586.705261,26.303936 585.180054,24.148224 
	C588.276245,26.401867 591.740967,28.727400 594.633728,31.624079 
	C602.460022,39.460777 609.925415,47.657978 617.755737,55.490463 
	C625.704712,63.441650 634.029480,71.016937 641.984497,78.962296 
	C649.584351,86.552956 656.808655,94.519501 664.402649,102.116241 
	C672.351990,110.068390 680.594604,117.726677 688.603943,125.619949 
	C691.305359,128.282211 693.685669,131.270325 696.347107,134.443024 
z"/>
<path fill="#713F9A" opacity="1.000000" stroke="none" 
	d="
M336.090668,224.495667 
	C339.347382,224.738007 342.806915,225.304764 347.131256,225.915695 
	C350.662231,225.974243 353.328339,226.000565 355.994476,226.001205 
	C432.981903,226.019516 509.969299,226.035278 586.956726,226.051437 
	C587.509583,226.657654 588.062500,227.263885 588.802246,228.121155 
	C585.057434,227.916077 581.126099,227.066025 577.193909,227.062012 
	C500.759033,226.984039 424.323975,227.036636 347.889221,226.912354 
	C344.022827,226.906052 340.158661,225.548492 336.090668,224.495667 
z"/>
<path fill="#8C54B8" opacity="1.000000" stroke="none" 
	d="
M586.619385,152.185623 
	C584.213501,152.749283 581.385742,153.878052 578.556458,153.881821 
	C505.003998,153.979752 431.451324,153.953720 357.898712,153.979416 
	C353.436371,153.980972 348.974091,154.233246 344.209473,153.966522 
	C343.907196,153.564194 344.009949,153.084167 344.009949,153.084167 
	C354.333282,153.035660 364.656616,152.946869 374.979950,152.945190 
	C443.261322,152.934021 511.542664,152.948029 579.824036,152.912933 
	C581.948425,152.911835 584.072571,152.465363 586.619385,152.185623 
z"/>
<path fill="#62328A" opacity="1.000000" stroke="none" 
	d="
M540.377197,8.529771 
	C539.519104,9.247135 538.374023,10.387403 537.006592,10.812573 
	C517.623291,16.839264 508.661377,45.666954 522.790405,63.927200 
	C523.598022,64.971039 524.155334,66.208641 524.980957,67.678009 
	C522.565063,64.728302 519.399109,61.763916 517.533386,58.131626 
	C509.588776,42.664528 515.608337,16.759041 535.706177,9.731114 
	C537.092957,9.246164 538.558044,8.985260 540.377197,8.529771 
z"/>
<path fill="#6C329A" opacity="1.000000" stroke="none" 
	d="
M156.004456,229.450592 
	C176.907257,229.380981 198.102463,229.562302 219.643341,229.809082 
	C215.967987,230.568588 211.957489,231.778717 207.923996,231.860992 
	C195.268875,232.119171 182.600494,232.146973 169.947098,231.847580 
	C165.382660,231.739563 160.846146,230.451218 156.004456,229.450592 
z"/>
<path fill="#62328A" opacity="1.000000" stroke="none" 
	d="
M525.309387,309.738098 
	C525.103333,310.975342 524.772400,312.466370 524.064880,313.749786 
	C516.562805,327.358887 515.883911,341.194672 522.478088,355.336334 
	C522.963562,356.377411 523.187134,357.540619 523.583740,359.028259 
	C516.898560,351.054291 515.197388,341.230347 516.585999,331.062012 
	C517.619995,323.490295 519.061646,315.690674 525.309387,309.738098 
z"/>
<path fill="#7940A1" opacity="1.000000" stroke="none" 
	d="
M68.274597,161.443237 
	C63.766651,160.190384 59.185570,158.082962 54.377819,157.172501 
	C40.033878,154.456177 26.743595,156.917770 14.981533,166.742325 
	C17.499405,164.313095 19.875595,160.646042 23.198387,159.277786 
	C38.313499,153.053680 53.505028,151.666672 68.274597,161.443237 
z"/>
<path fill="#753A9E" opacity="1.000000" stroke="none" 
	d="
M164.974899,156.368958 
	C153.120087,158.066635 143.916504,163.693832 138.085281,174.400620 
	C137.635681,175.226120 136.726868,175.801498 135.711578,176.670349 
	C139.105957,165.540512 147.344757,159.176895 158.376312,155.943115 
	C160.247696,155.394531 162.239716,155.257431 164.574768,155.328644 
	C164.973984,155.941040 164.974442,156.154999 164.974899,156.368958 
z"/>
<path fill="#753A9E" opacity="1.000000" stroke="none" 
	d="
M4.683363,197.403534 
	C6.225468,201.185562 6.907086,205.874023 9.274099,209.445511 
	C13.131997,215.266525 18.090347,220.358215 22.780300,226.050446 
	C13.195043,223.808960 3.939805,206.996582 4.683363,197.403534 
z"/>
<path fill="#62328A" opacity="1.000000" stroke="none" 
	d="
M132.529114,197.265625 
	C134.187347,201.395462 135.069153,206.327728 137.449310,210.379852 
	C140.509628,215.589890 144.772278,220.093674 148.666565,225.220581 
	C137.388992,219.760239 133.968063,209.269257 132.529114,197.265625 
z"/>
<path fill="#6C329A" opacity="1.000000" stroke="none" 
	d="
M585.095215,23.580692 
	C584.571899,23.681591 583.776428,23.605579 583.373108,23.168036 
	C576.245789,15.435061 567.332764,10.703743 557.197815,7.346748 
	C568.572266,8.540032 578.335999,13.198982 585.095215,23.580692 
z"/>
<path fill="#753A9E" opacity="1.000000" stroke="none" 
	d="
M717.448181,222.323090 
	C721.987183,215.418091 726.877869,208.422394 731.987671,201.143555 
	C730.724854,210.222687 725.211975,216.867676 717.448181,222.323090 
z"/>
<path fill="#8C54B8" opacity="1.000000" stroke="none" 
	d="
M165.443726,156.305450 
	C164.974442,156.154999 164.973984,155.941040 164.981110,155.406250 
	C181.011032,155.051819 197.033356,155.018234 213.577362,155.344177 
	C214.141296,155.903397 214.183563,156.103043 214.225815,156.302704 
	C198.121399,156.282455 182.016983,156.262207 165.443726,156.305450 
z"/>
<path fill="#7940A1" opacity="1.000000" stroke="none" 
	d="
M83.279037,188.614136 
	C79.917091,181.435684 76.651527,173.865082 73.313293,165.932007 
	C80.140686,171.544708 82.298553,179.641525 83.279037,188.614136 
z"/>
<path fill="#753A9E" opacity="1.000000" stroke="none" 
	d="
M214.543503,156.418732 
	C214.183563,156.103043 214.141296,155.903397 214.041809,155.403046 
	C222.789963,155.984253 230.739838,158.580658 236.288101,166.535431 
	C229.980453,161.835007 223.059723,157.856613 214.543503,156.418732 
z"/>
<path fill="#753A9E" opacity="1.000000" stroke="none" 
	d="
M523.551514,359.494873 
	C529.804688,363.046631 536.110352,366.961945 542.667114,371.124878 
	C535.232117,369.627991 528.734253,365.890259 523.551514,359.494873 
z"/>
<path fill="#753A9E" opacity="1.000000" stroke="none" 
	d="
M343.603271,152.999969 
	C344.009949,153.084167 343.907196,153.564194 343.861389,153.805511 
	C337.628571,156.554565 331.441528,159.062317 324.886108,161.630112 
	C329.384155,155.870499 336.081726,153.948944 343.603271,152.999969 
z"/>
<path fill="#753A9E" opacity="1.000000" stroke="none" 
	d="
M35.367325,230.839447 
	C41.703846,230.551193 48.472248,230.334427 55.725437,230.137192 
	C49.406555,230.408112 42.602879,230.659500 35.367325,230.839447 
z"/>
<path fill="#6C329A" opacity="1.000000" stroke="none" 
	d="
M712.346863,150.440979 
	C708.825378,147.226822 705.171082,143.678436 701.381104,139.797592 
	C704.901611,143.012344 708.557800,146.559555 712.346863,150.440979 
z"/>
<path fill="#62328A" opacity="1.000000" stroke="none" 
	d="
M572.341675,262.581421 
	C569.170898,266.135742 565.658508,269.788818 561.816040,273.570740 
	C564.990601,270.026459 568.495300,266.353302 572.341675,262.581421 
z"/>
<path fill="#62328A" opacity="1.000000" stroke="none" 
	d="
M540.334473,294.581543 
	C537.166565,298.139893 533.657837,301.797119 529.818176,305.582703 
	C532.989441,302.034149 536.491577,298.357269 540.334473,294.581543 
z"/>
<path fill="#713F9A" opacity="1.000000" stroke="none" 
	d="
M322.253510,215.270554 
	C326.492462,218.020477 330.862305,221.079544 335.400391,224.452393 
	C331.173889,221.704010 326.779144,218.641861 322.253510,215.270554 
z"/>
<path fill="#753A9E" opacity="1.000000" stroke="none" 
	d="
M578.527344,363.265656 
	C580.679260,360.691681 583.169800,358.016083 586.010864,355.256470 
	C583.862976,357.836304 581.364502,360.500153 578.527344,363.265656 
z"/>
<path fill="#7535AB" opacity="1.000000" stroke="none" 
	d="
M654.497192,286.255920 
	C657.319580,283.012146 660.481384,279.667511 663.991577,276.232758 
	C661.172119,279.480133 658.004333,282.817596 654.497192,286.255920 
z"/>
<path fill="#62328A" opacity="1.000000" stroke="none" 
	d="
M135.212296,176.799011 
	C134.666733,181.231110 133.839294,185.893692 132.826584,190.849167 
	C133.404343,186.437866 134.167374,181.733673 135.212296,176.799011 
z"/>
<path fill="#753A9E" opacity="1.000000" stroke="none" 
	d="
M592.518311,349.264801 
	C594.336731,347.021942 596.493835,344.678040 599.001831,342.252502 
	C597.187439,344.501831 595.022156,346.832794 592.518311,349.264801 
z"/>
<path fill="#62328A" opacity="1.000000" stroke="none" 
	d="
M555.327576,279.576263 
	C552.826477,282.461884 549.984009,285.446350 546.811279,288.558868 
	C549.316101,285.683014 552.151123,282.679047 555.327576,279.576263 
z"/>
<path fill="#7940A1" opacity="1.000000" stroke="none" 
	d="
M78.347763,213.522247 
	C79.344925,210.302322 80.604210,206.907898 82.032028,203.251404 
	C81.003670,206.442123 79.806778,209.894928 78.347763,213.522247 
z"/>
<path fill="#753A9E" opacity="1.000000" stroke="none" 
	d="
M6.705936,179.713562 
	C6.345354,182.748642 5.741323,186.082199 4.963524,189.699692 
	C5.347333,186.659760 5.904911,183.335892 6.705936,179.713562 
z"/>
<path fill="#753A9E" opacity="1.000000" stroke="none" 
	d="
M555.390747,372.812531 
	C558.131958,371.894623 561.272766,371.041656 564.838318,370.180054 
	C562.105469,371.073425 558.947876,371.975464 555.390747,372.812531 
z"/>
<path fill="#7535AB" opacity="1.000000" stroke="none" 
	d="
M671.489990,269.249420 
	C672.981018,267.340118 674.809753,265.330261 676.987183,263.229736 
	C675.499878,265.142365 673.663757,267.145599 671.489990,269.249420 
z"/>
<path fill="#753A9E" opacity="1.000000" stroke="none" 
	d="
M24.955498,227.439545 
	C27.283424,228.098160 29.846968,229.033325 32.692772,230.204834 
	C30.380392,229.532837 27.785753,228.624466 24.955498,227.439545 
z"/>
<path fill="#7535AB" opacity="1.000000" stroke="none" 
	d="
M646.128662,295.537537 
	C646.785583,294.252014 647.714417,292.797028 648.992798,291.241638 
	C648.361755,292.550201 647.381165,293.959137 646.128662,295.537537 
z"/>
<path fill="#753A9E" opacity="1.000000" stroke="none" 
	d="
M573.924133,366.639160 
	C574.942810,365.596710 576.285522,364.447083 577.989868,363.244171 
	C576.983704,364.304565 575.615906,365.418274 573.924133,366.639160 
z"/>
<path fill="#753A9E" opacity="1.000000" stroke="none" 
	d="
M712.448425,227.327820 
	C713.306580,226.078690 714.515259,224.743195 716.020508,223.239716 
	C715.144409,224.461624 713.971680,225.851532 712.448425,227.327820 
z"/>
<path fill="#753A9E" opacity="1.000000" stroke="none" 
	d="
M59.360065,229.717468 
	C60.545193,228.886749 62.059978,228.051529 63.933281,227.193451 
	C62.757771,228.018036 61.223751,228.865494 59.360065,229.717468 
z"/>
<path fill="#7940A1" opacity="1.000000" stroke="none" 
	d="
M12.406005,168.672974 
	C11.885835,169.862061 11.055996,171.211075 9.918022,172.728302 
	C10.438704,171.541992 11.267521,170.187454 12.406005,168.672974 
z"/>
<path fill="#7940A1" opacity="1.000000" stroke="none" 
	d="
M75.011215,218.169235 
	C75.288963,217.714432 75.577721,217.354691 75.938553,216.872086 
	C75.681152,217.254227 75.351685,217.759262 75.011215,218.169235 
z"/>
<path fill="#6C329A" opacity="1.000000" stroke="none" 
	d="
M545.662903,7.050751 
	C544.480347,7.638966 542.942749,8.166167 541.017883,8.655605 
	C542.189697,8.075140 543.748779,7.532438 545.662903,7.050751 
z"/>
<path fill="#6C329A" opacity="1.000000" stroke="none" 
	d="
M554.586060,7.026275 
	C552.907227,7.183560 550.793030,7.270129 548.340149,7.230797 
	C550.051208,7.055117 552.101013,7.005338 554.586060,7.026275 
z"/>
<path fill="#6C329A" opacity="1.000000" stroke="none" 
	d="
M716.311768,154.347931 
	C715.472351,153.827713 714.493530,153.019928 713.432861,151.878662 
	C714.291504,152.383575 715.231934,153.221985 716.311768,154.347931 
z"/>
<path fill="#753A9E" opacity="1.000000" stroke="none" 
	d="
M8.519314,174.487228 
	C8.312596,175.695114 7.804259,177.158966 7.029866,178.915359 
	C7.248439,177.719666 7.733067,176.231430 8.519314,174.487228 
z"/>
<path fill="#753A9E" opacity="1.000000" stroke="none" 
	d="
M567.837891,369.334717 
	C568.845154,368.585754 570.154663,367.949799 571.908630,367.249207 
	C570.948792,367.938934 569.544495,368.693329 567.837891,369.334717 
z"/>
<path fill="#753A9E" opacity="1.000000" stroke="none" 
	d="
M546.254272,372.082733 
	C546.883728,372.032715 547.757690,372.195068 548.781616,372.542908 
	C548.120667,372.584015 547.309814,372.439545 546.254272,372.082733 
z"/>
<path fill="#753A9E" opacity="1.000000" stroke="none" 
	d="
M242.161301,174.743225 
	C241.574387,174.141403 240.988007,173.190063 240.329971,171.899475 
	C240.892807,172.504715 241.527313,173.449203 242.161301,174.743225 
z"/>
<path fill="#753A9E" opacity="1.000000" stroke="none" 
	d="
M240.302521,171.606750 
	C239.718018,171.042755 239.065933,170.138901 238.342194,168.895020 
	C238.925323,169.458969 239.580109,170.362930 240.302521,171.606750 
z"/>
<path fill="#753A9E" opacity="1.000000" stroke="none" 
	d="
M64.353668,227.274384 
	C64.916962,226.676697 65.830101,226.010910 67.072739,225.260330 
	C66.502663,225.852432 65.603088,226.529343 64.353668,227.274384 
z"/>
<path fill="#7940A1" opacity="1.000000" stroke="none" 
	d="
M70.507584,162.733505 
	C69.960510,162.707779 69.227448,162.424896 68.232361,162.009674 
	C68.754089,162.077011 69.537842,162.276688 70.507584,162.733505 
z"/>
<path fill="#7535AB" opacity="1.000000" stroke="none" 
	d="
M686.365234,254.166931 
	C686.674561,253.645248 687.309143,252.997635 688.246338,252.181641 
	C687.929504,252.689178 687.309937,253.365097 686.365234,254.166931 
z"/>
<path fill="#7535AB" opacity="1.000000" stroke="none" 
	d="
M695.402710,244.262756 
	C695.645203,243.690704 696.255676,243.067368 697.139404,242.256027 
	C696.865356,242.782486 696.317932,243.496979 695.402710,244.262756 
z"/>
<path fill="#7535AB" opacity="1.000000" stroke="none" 
	d="
M697.405884,242.223419 
	C697.647888,241.645721 698.259644,241.041809 699.144531,240.254120 
	C698.870361,240.779282 698.322998,241.488251 697.405884,242.223419 
z"/>
<path fill="#6C329A" opacity="1.000000" stroke="none" 
	d="
M224.302979,228.180099 
	C224.561920,227.898346 225.172440,227.627426 226.105286,227.261566 
	C225.836609,227.508057 225.245605,227.849487 224.302979,228.180099 
z"/>
<path fill="#62328A" opacity="1.000000" stroke="none" 
	d="
M559.506226,275.604584 
	C559.392029,275.927460 558.994934,276.359894 558.340088,276.931396 
	C558.462585,276.618408 558.842896,276.166260 559.506226,275.604584 
z"/>
<path fill="#7535AB" opacity="1.000000" stroke="none" 
	d="
M694.334717,246.318985 
	C694.284790,245.898254 694.549744,245.247955 694.965210,244.282410 
	C694.960327,244.674606 694.804993,245.382019 694.334717,246.318985 
z"/>
<path fill="#62328A" opacity="1.000000" stroke="none" 
	d="
M557.801392,277.214569 
	C557.710876,277.539795 557.350952,277.997681 556.749146,278.629272 
	C556.848816,278.317719 557.190369,277.832489 557.801392,277.214569 
z"/>
<path fill="#7535AB" opacity="1.000000" stroke="none" 
	d="
M700.257263,239.160370 
	C700.385742,238.838440 700.787354,238.555130 701.393799,238.133469 
	C701.242615,238.396423 700.886475,238.797699 700.257263,239.160370 
z"/>
<path fill="#6C329A" opacity="1.000000" stroke="none" 
	d="
M222.403870,229.291321 
	C222.623550,229.034943 223.160767,228.698120 223.996277,228.241943 
	C223.770187,228.485321 223.245789,228.848083 222.403870,229.291321 
z"/>
<path fill="#7839AA" opacity="1.000000" stroke="none" 
	d="
M616.328979,325.326050 
	C616.278687,324.903503 616.543518,324.250153 616.960693,323.280640 
	C616.956726,323.674744 616.800415,324.384979 616.328979,325.326050 
z"/>
<path fill="#753A9E" opacity="1.000000" stroke="none" 
	d="
M22.959217,226.361969 
	C23.356174,226.316193 23.920259,226.564301 24.759136,226.947968 
	C24.398067,226.940964 23.762205,226.798416 22.959217,226.361969 
z"/>
<path fill="#7839AA" opacity="1.000000" stroke="none" 
	d="
M621.247925,319.178162 
	C621.376343,318.856445 621.773071,318.582794 622.366821,318.169250 
	C622.214661,318.428314 621.865479,318.827271 621.247925,319.178162 
z"/>
<path fill="#753A9E" opacity="1.000000" stroke="none" 
	d="
M322.711853,163.791412 
	C322.560608,164.128571 322.107117,164.434265 321.423615,164.897141 
	C321.598938,164.622864 322.004272,164.191406 322.711853,163.791412 
z"/>
<path fill="#753A9E" opacity="1.000000" stroke="none" 
	d="
M565.342773,370.161285 
	C565.539551,369.829010 566.150208,369.475922 567.046509,368.909607 
	C566.806885,369.177765 566.281738,369.659088 565.342773,370.161285 
z"/>
<path fill="#7535AB" opacity="1.000000" stroke="none" 
	d="
M636.315674,304.096741 
	C636.249695,303.870789 636.496155,303.622467 636.923950,303.184387 
	C636.946167,303.354523 636.787109,303.714447 636.315674,304.096741 
z"/>
<path fill="#62328A" opacity="1.000000" stroke="none" 
	d="
M527.525146,307.671417 
	C527.555542,307.852631 527.289124,308.159302 526.790649,308.665405 
	C526.781738,308.508881 527.005005,308.152893 527.525146,307.671417 
z"/>
<path fill="#62328A" opacity="1.000000" stroke="none" 
	d="
M526.522766,308.671448 
	C526.554932,308.852051 526.291016,309.158783 525.800842,309.668304 
	C525.791931,309.513275 526.009277,309.155457 526.522766,308.671448 
z"/>
<path fill="#62328A" opacity="1.000000" stroke="none" 
	d="
M528.532654,306.675415 
	C528.562988,306.859222 528.292786,307.163361 527.789612,307.666748 
	C527.781799,307.509247 528.006958,307.152496 528.532654,306.675415 
z"/>
<path fill="#7535AB" opacity="1.000000" stroke="none" 
	d="
M633.322266,307.434143 
	C633.248840,307.247467 633.507141,306.898987 633.969604,306.297852 
	C634.000488,306.454285 633.827148,306.863312 633.322266,307.434143 
z"/>
<path fill="#62328A" opacity="1.000000" stroke="none" 
	d="
M529.533203,305.681213 
	C529.564575,305.870514 529.289673,306.168610 528.781738,306.665161 
	C528.774780,306.505737 529.000793,306.147888 529.533203,305.681213 
z"/>
<path fill="#7535AB" opacity="1.000000" stroke="none" 
	d="
M634.416748,306.290649 
	C634.302612,305.952972 634.591614,305.715790 635.058838,305.263123 
	C635.098022,305.495483 634.958923,305.943298 634.416748,306.290649 
z"/>
<path fill="#6C329A" opacity="1.000000" stroke="none" 
	d="
M713.144653,151.632721 
	C712.902832,151.705811 712.666565,151.454239 712.236816,151.030670 
	C712.412292,151.008469 712.781311,151.158264 713.144653,151.632721 
z"/>
<path fill="#7839AA" opacity="1.000000" stroke="none" 
	d="
M620.459717,320.307434 
	C620.323853,319.971497 620.553040,319.690399 620.953613,319.198120 
	C621.024963,319.445374 620.924866,319.903839 620.459717,320.307434 
z"/>
<path fill="#7535AB" opacity="1.000000" stroke="none" 
	d="
M635.456909,305.306396 
	C635.323425,304.970581 635.554565,304.691986 635.955017,304.201141 
	C636.023376,304.447144 635.922485,304.905334 635.456909,305.306396 
z"/>
<path fill="#753A9E" opacity="1.000000" stroke="none" 
	d="
M603.307190,338.071686 
	C603.247620,337.858063 603.490112,337.612335 603.918213,337.186096 
	C603.939026,337.350250 603.774170,337.694916 603.307190,338.071686 
z"/>
<path fill="#7535AB" opacity="1.000000" stroke="none" 
	d="
M637.321716,303.102661 
	C637.256836,302.875336 637.526062,302.645508 637.998169,302.244446 
	C638.019287,302.415497 637.837585,302.757843 637.321716,303.102661 
z"/>
<path fill="#7535AB" opacity="1.000000" stroke="none" 
	d="
M638.412109,302.274414 
	C638.302124,301.946289 638.598755,301.719238 639.064453,301.266174 
	C639.095215,301.485260 638.956909,301.930389 638.412109,302.274414 
z"/>
<path fill="#7535AB" opacity="1.000000" stroke="none" 
	d="
M639.434998,301.302368 
	C639.318848,300.964478 639.607300,300.726318 640.062988,300.263977 
	C640.100098,300.493896 639.969849,300.948029 639.434998,301.302368 
z"/>
<path fill="#7535AB" opacity="1.000000" stroke="none" 
	d="
M640.435913,300.302856 
	C640.319824,299.964905 640.609070,299.727631 641.065613,299.266052 
	C641.102356,299.495697 640.971802,299.949615 640.435913,300.302856 
z"/>
<path fill="#7535AB" opacity="1.000000" stroke="none" 
	d="
M641.438354,299.304749 
	C641.321777,298.966156 641.611328,298.729156 642.067871,298.267639 
	C642.104736,298.497498 641.974609,298.951904 641.438354,299.304749 
z"/>
<path fill="#7535AB" opacity="1.000000" stroke="none" 
	d="
M642.440796,298.306885 
	C642.323669,297.967590 642.613037,297.730316 643.068726,297.267975 
	C643.105713,297.498230 642.976501,297.953552 642.440796,298.306885 
z"/>
<path fill="#7535AB" opacity="1.000000" stroke="none" 
	d="
M643.441772,297.307861 
	C643.324341,296.968231 643.613586,296.730652 644.068237,296.267334 
	C644.105286,296.497711 643.976868,296.953827 643.441772,297.307861 
z"/>
<path fill="#7535AB" opacity="1.000000" stroke="none" 
	d="
M644.441162,296.307617 
	C644.323914,295.968018 644.613159,295.730408 645.066956,295.266266 
	C645.103577,295.496338 644.975586,295.952942 644.441162,296.307617 
z"/>
<path fill="#6C329A" opacity="1.000000" stroke="none" 
	d="
M717.147217,155.632202 
	C716.904419,155.705261 716.668945,155.453049 716.240051,155.028671 
	C716.415955,155.006638 716.785339,155.156784 717.147217,155.632202 
z"/>
<path fill="#62328A" opacity="1.000000" stroke="none" 
	d="
M541.510376,293.655457 
	C541.551514,293.839142 541.293274,294.143890 540.827637,294.661224 
	C540.817200,294.508026 541.014099,294.142273 541.510376,293.655457 
z"/>
<path fill="#753A9E" opacity="1.000000" stroke="none" 
	d="
M590.310547,351.076660 
	C590.249023,350.860199 590.491089,350.613434 590.920044,350.186951 
	C590.942627,350.353607 590.778381,350.699982 590.310547,351.076660 
z"/>
<path fill="#62328A" opacity="1.000000" stroke="none" 
	d="
M525.587036,68.318726 
	C525.769958,68.281288 526.126709,68.551666 526.728516,69.050995 
	C526.569336,69.062134 526.165161,68.844337 525.587036,68.318726 
z"/>
<path fill="#62328A" opacity="1.000000" stroke="none" 
	d="
M526.801819,69.405823 
	C526.963196,69.326248 527.277344,69.483261 527.801270,69.798302 
	C527.658936,69.851692 527.306763,69.747047 526.801819,69.405823 
z"/>
<path fill="#6C329A" opacity="1.000000" stroke="none" 
	d="
M697.142517,135.635330 
	C696.901306,135.707779 696.665405,135.455673 696.235474,135.031952 
	C696.410217,135.010483 696.778992,135.160629 697.142517,135.635330 
z"/>
<path fill="#753A9E" opacity="1.000000" stroke="none" 
	d="
M572.334167,367.114807 
	C572.267700,366.887085 572.532837,366.658630 573.005127,366.269440 
	C573.030151,366.443848 572.847961,366.778961 572.334167,367.114807 
z"/>
<path fill="#6C329A" opacity="1.000000" stroke="none" 
	d="
M698.143982,136.634064 
	C697.902161,136.706985 697.666016,136.455246 697.236450,136.031326 
	C697.411865,136.009232 697.780823,136.159332 698.143982,136.634064 
z"/>
<path fill="#6C329A" opacity="1.000000" stroke="none" 
	d="
M699.144897,137.633728 
	C698.902527,137.706848 698.666382,137.455170 698.237305,137.030884 
	C698.413208,137.008484 698.782104,137.158707 699.144897,137.633728 
z"/>
<path fill="#6C329A" opacity="1.000000" stroke="none" 
	d="
M700.144958,138.634293 
	C699.902527,138.707275 699.666626,138.455322 699.237671,138.030731 
	C699.413513,138.008530 699.782532,138.158951 700.144958,138.634293 
z"/>
<path fill="#753A9E" opacity="1.000000" stroke="none" 
	d="
M586.311584,355.078430 
	C586.249756,354.861328 586.492249,354.614716 586.921509,354.187988 
	C586.944092,354.354889 586.780029,354.701935 586.311584,355.078430 
z"/>
<path fill="#753A9E" opacity="1.000000" stroke="none" 
	d="
M587.311523,354.078400 
	C587.249695,353.861237 587.492065,353.614532 587.921265,353.187805 
	C587.943970,353.354828 587.779907,353.701843 587.311523,354.078400 
z"/>
<path fill="#753A9E" opacity="1.000000" stroke="none" 
	d="
M588.311401,353.078003 
	C588.249573,352.860992 588.491882,352.614288 588.920898,352.187561 
	C588.943604,352.354462 588.779541,352.701385 588.311401,353.078003 
z"/>
<path fill="#753A9E" opacity="1.000000" stroke="none" 
	d="
M589.310791,352.077271 
	C589.249268,351.860626 589.491699,351.614136 589.920593,351.187347 
	C589.942932,351.353851 589.778870,351.700623 589.310791,352.077271 
z"/>
<path fill="#7839AA" opacity="1.000000" stroke="none" 
	d="
M619.447693,321.325104 
	C619.321716,320.976654 619.596985,320.723328 620.057739,320.261230 
	C620.111755,320.508362 619.980347,320.964294 619.447693,321.325104 
z"/>
<path fill="#753A9E" opacity="1.000000" stroke="none" 
	d="
M591.310120,350.076111 
	C591.248840,349.859924 591.491028,349.613373 591.920044,349.186951 
	C591.942383,349.353363 591.778015,349.699554 591.310120,350.076111 
z"/>
<path fill="#6C329A" opacity="1.000000" stroke="none" 
	d="
M701.144531,139.635193 
	C700.902222,139.707916 700.666565,139.455643 700.237488,139.030899 
	C700.413086,139.009018 700.782104,139.159592 701.144531,139.635193 
z"/>
<path fill="#753A9E" opacity="1.000000" stroke="none" 
	d="
M599.310181,342.074951 
	C599.249146,341.859802 599.490845,341.613007 599.919312,341.186646 
	C599.941650,341.352509 599.777283,341.697906 599.310181,342.074951 
z"/>
<path fill="#753A9E" opacity="1.000000" stroke="none" 
	d="
M600.308716,341.073334 
	C600.248535,340.859100 600.490723,340.612915 600.918823,340.186401 
	C600.940186,340.351196 600.775635,340.696289 600.308716,341.073334 
z"/>
<path fill="#753A9E" opacity="1.000000" stroke="none" 
	d="
M601.307983,340.072418 
	C601.247925,339.858398 601.490112,339.612305 601.918335,339.186127 
	C601.939697,339.350800 601.774902,339.695557 601.307983,340.072418 
z"/>
<path fill="#753A9E" opacity="1.000000" stroke="none" 
	d="
M602.307495,339.071960 
	C602.247742,338.858185 602.490112,338.612305 602.918335,338.186127 
	C602.939331,338.350494 602.774475,338.695160 602.307495,339.071960 
z"/>
<path fill="#7535AB" opacity="1.000000" stroke="none" 
	d="
M651.304504,289.076202 
	C651.244324,288.859863 651.490723,288.614044 651.921387,288.183228 
	C651.940796,288.347717 651.775940,288.697235 651.304504,289.076202 
z"/>
<path fill="#753A9E" opacity="1.000000" stroke="none" 
	d="
M604.306824,337.071198 
	C604.247498,336.857880 604.490173,336.612396 604.918091,336.185974 
	C604.938477,336.349670 604.773682,336.694336 604.306824,337.071198 
z"/>
<path fill="#753A9E" opacity="1.000000" stroke="none" 
	d="
M605.329224,336.048035 
	C605.337708,335.843384 605.685425,335.594879 606.302612,335.169495 
	C606.270874,335.329773 605.969727,335.666962 605.329224,336.048035 
z"/>
<path fill="#7839AA" opacity="1.000000" stroke="none" 
	d="
M617.331421,323.124268 
	C617.261353,322.887451 617.531311,322.654144 618.004639,322.247009 
	C618.029114,322.424713 617.850281,322.776276 617.331421,323.124268 
z"/>
<path fill="#7839AA" opacity="1.000000" stroke="none" 
	d="
M618.421753,322.303711 
	C618.303528,321.960449 618.584351,321.713776 619.055054,321.262634 
	C619.103577,321.505524 618.962158,321.952942 618.421753,322.303711 
z"/>
<path fill="#7940A1" opacity="1.000000" stroke="none" 
	d="
M14.656411,166.854965 
	C14.733299,167.104950 14.481499,167.354294 14.039341,167.789032 
	C14.008564,167.601044 14.168143,167.227692 14.656411,166.854965 
z"/>
<path fill="#7535AB" opacity="1.000000" stroke="none" 
	d="
M678.295227,262.063568 
	C678.240601,261.855011 678.488220,261.611237 678.917236,261.180298 
	C678.931580,261.338226 678.764526,261.683289 678.295227,262.063568 
z"/>
<path fill="#62328A" opacity="1.000000" stroke="none" 
	d="
M574.709595,260.954712 
	C574.706299,261.127197 574.409790,261.335388 573.874634,261.674774 
	C573.896057,261.534119 574.156189,261.262238 574.709595,260.954712 
z"/>
<path fill="#7535AB" opacity="1.000000" stroke="none" 
	d="
M679.294373,261.063019 
	C679.240173,260.854858 679.488098,260.611389 679.917297,260.180511 
	C679.931213,260.337952 679.763855,260.682861 679.294373,261.063019 
z"/>
<path fill="#7535AB" opacity="1.000000" stroke="none" 
	d="
M680.294495,260.063263 
	C680.240173,259.854919 680.487976,259.611420 680.917297,259.180725 
	C680.931458,259.338348 680.764038,259.683228 680.294495,260.063263 
z"/>
<path fill="#7535AB" opacity="1.000000" stroke="none" 
	d="
M681.295044,259.063660 
	C681.240295,258.854980 681.487793,258.611267 681.917175,258.180664 
	C681.931763,258.338715 681.764526,258.683655 681.295044,259.063660 
z"/>
<path fill="#7535AB" opacity="1.000000" stroke="none" 
	d="
M682.295349,258.063660 
	C682.240479,257.854889 682.487793,257.610992 682.916992,257.180359 
	C682.931702,257.338531 682.764587,257.683502 682.295349,258.063660 
z"/>
<path fill="#7535AB" opacity="1.000000" stroke="none" 
	d="
M683.294861,257.062897 
	C683.240356,256.854706 683.487854,256.610870 683.916748,256.179871 
	C683.931091,256.337555 683.763977,256.682434 683.294861,257.062897 
z"/>
<path fill="#7535AB" opacity="1.000000" stroke="none" 
	d="
M684.293518,256.061127 
	C684.239868,255.854141 684.487610,255.610443 684.916138,255.178955 
	C684.929565,255.335571 684.762268,255.679993 684.293518,256.061127 
z"/>
<path fill="#7535AB" opacity="1.000000" stroke="none" 
	d="
M685.290894,255.058319 
	C685.239014,254.853516 685.487793,254.610687 685.916138,254.178772 
	C685.927673,254.333221 685.759583,254.676758 685.290894,255.058319 
z"/>
<path fill="#7535AB" opacity="1.000000" stroke="none" 
	d="
M699.327148,240.108994 
	C699.256958,239.877914 699.502319,239.627487 699.930786,239.188446 
	C699.956787,239.363098 699.799744,239.726364 699.327148,240.108994 
z"/>
<path fill="#7940A1" opacity="1.000000" stroke="none" 
	d="
M73.091942,165.687332 
	C72.869781,165.749878 72.626259,165.498550 72.189407,165.069763 
	C72.354240,165.052689 72.712410,165.213089 73.091942,165.687332 
z"/>
<path fill="#62328A" opacity="1.000000" stroke="none" 
	d="
M573.521118,261.667633 
	C573.563904,261.856842 573.302063,262.156372 572.831177,262.665955 
	C572.820312,262.509979 573.018433,262.143951 573.521118,261.667633 
z"/>
<path fill="#753A9E" opacity="1.000000" stroke="none" 
	d="
M56.244167,230.183990 
	C56.215855,230.108749 56.457287,230.001007 56.828484,229.872238 
	C56.804646,229.938232 56.656528,230.038330 56.244167,230.183990 
z"/>
<path fill="#713F9A" opacity="1.000000" stroke="none" 
	d="
M588.869995,228.296753 
	C589.047119,228.215546 589.324341,228.396576 589.796265,228.733826 
	C589.655457,228.772308 589.315247,228.661957 588.869995,228.296753 
z"/>
<path fill="#753A9E" opacity="1.000000" stroke="none" 
	d="
M711.318237,228.435501 
	C711.244629,228.244873 711.480286,227.881546 711.909668,227.258209 
	C711.944763,227.419739 711.786072,227.841263 711.318237,228.435501 
z"/>
<path fill="#753A9E" opacity="1.000000" stroke="none" 
	d="
M237.134567,167.649796 
	C236.890076,167.728317 236.639954,167.482727 236.205978,167.049316 
	C236.391052,167.016235 236.759995,167.170959 237.134567,167.649796 
z"/>
<path fill="#7940A1" opacity="1.000000" stroke="none" 
	d="
M13.645311,167.843506 
	C13.728294,168.099747 13.481557,168.354385 13.037973,168.787781 
	C12.999283,168.591660 13.157437,168.216782 13.645311,167.843506 
z"/>
<path fill="#753A9E" opacity="1.000000" stroke="none" 
	d="
M238.135132,168.650635 
	C237.890579,168.728424 237.640610,168.483215 237.209076,168.048309 
	C237.394928,168.014938 237.762329,168.171295 238.135132,168.650635 
z"/>
<path fill="#753A9E" opacity="1.000000" stroke="none" 
	d="
M716.325317,223.100296 
	C716.257446,222.872406 716.501282,222.624420 716.933228,222.195770 
	C716.959961,222.370132 716.798523,222.725159 716.325317,223.100296 
z"/>
<path fill="#7940A1" opacity="1.000000" stroke="none" 
	d="
M9.579207,172.962921 
	C9.681183,173.222122 9.406021,173.574982 8.937767,174.209106 
	C8.897140,174.012436 9.049605,173.534515 9.579207,172.962921 
z"/>
<path fill="#753A9E" opacity="1.000000" stroke="none" 
	d="
M242.570312,176.563385 
	C242.470474,176.512314 242.336441,176.201340 242.102310,175.655624 
	C242.180176,175.715088 242.358154,176.009293 242.570312,176.563385 
z"/>
<path fill="#7940A1" opacity="1.000000" stroke="none" 
	d="
M83.222702,193.533493 
	C83.189064,193.545715 83.260841,193.464249 83.234924,193.466400 
	C83.209007,193.468552 83.256340,193.521271 83.222702,193.533493 
z"/>
<path fill="#6C329A" opacity="1.000000" stroke="none" 
	d="
M732.310669,200.418579 
	C732.255432,200.235062 732.497864,199.879608 732.945251,199.274475 
	C732.969604,199.432068 732.789001,199.839340 732.310669,200.418579 
z"/>
<path fill="#753A9E" opacity="1.000000" stroke="none" 
	d="
M323.662537,162.878265 
	C323.732666,163.114105 323.478760,163.356339 323.052551,163.796677 
	C323.032959,163.624741 323.185699,163.254700 323.662537,162.878265 
z"/>
<path fill="#62328A" opacity="1.000000" stroke="none" 
	d="
M543.518066,291.663849 
	C543.550598,291.847198 543.283020,292.152344 542.787842,292.660767 
	C542.779541,292.504608 542.998718,292.145111 543.518066,291.663849 
z"/>
<path fill="#62328A" opacity="1.000000" stroke="none" 
	d="
M544.525635,290.671997 
	C544.557739,290.857849 544.286316,291.158630 543.786926,291.661713 
	C543.780029,291.504974 544.001099,291.145935 544.525635,290.671997 
z"/>
<path fill="#7535AB" opacity="1.000000" stroke="none" 
	d="
M649.304504,291.076416 
	C649.244202,290.859802 649.490479,290.613983 649.921509,290.183472 
	C649.941162,290.348236 649.776123,290.697693 649.304504,291.076416 
z"/>
<path fill="#62328A" opacity="1.000000" stroke="none" 
	d="
M545.525513,289.679901 
	C545.558167,289.870636 545.282715,290.164734 544.778931,290.659180 
	C544.772888,290.500732 544.995178,290.141998 545.525513,289.679901 
z"/>
<path fill="#7535AB" opacity="1.000000" stroke="none" 
	d="
M650.304626,290.076508 
	C650.244324,289.859955 650.490601,289.614075 650.921509,289.183441 
	C650.941162,289.348206 650.776184,289.697723 650.304626,290.076508 
z"/>
<path fill="#62328A" opacity="1.000000" stroke="none" 
	d="
M546.522339,288.690002 
	C546.558960,288.886047 546.283691,289.172028 545.788635,289.660126 
	C545.782715,289.501495 545.996521,289.140686 546.522339,288.690002 
z"/>
<path fill="#7940A1" opacity="1.000000" stroke="none" 
	d="
M82.878357,200.737183 
	C82.776535,200.694733 82.882576,200.436584 83.061768,200.056702 
	C83.104317,200.124420 83.088081,200.319946 82.878357,200.737183 
z"/>
<path fill="#7535AB" opacity="1.000000" stroke="none" 
	d="
M652.303833,288.075439 
	C652.244080,287.859589 652.490662,287.614044 652.921082,287.182983 
	C652.940063,287.346924 652.775208,287.696350 652.303833,288.075439 
z"/>
<path fill="#7535AB" opacity="1.000000" stroke="none" 
	d="
M653.302979,287.074341 
	C653.243530,286.858887 653.490173,286.613403 653.920532,286.182556 
	C653.939270,286.346222 653.774109,286.695221 653.302979,287.074341 
z"/>
<path fill="#753A9E" opacity="1.000000" stroke="none" 
	d="
M324.654053,161.868240 
	C324.729370,162.109970 324.479767,162.356659 324.048523,162.793579 
	C324.020966,162.613617 324.175079,162.243393 324.654053,161.868240 
z"/>
<path fill="#62328A" opacity="1.000000" stroke="none" 
	d="
M556.514648,278.662903 
	C556.560486,278.851776 556.301758,279.148071 555.845337,279.658783 
	C555.835083,279.505554 556.022583,279.137939 556.514648,278.662903 
z"/>
<path fill="#62328A" opacity="1.000000" stroke="none" 
	d="
M542.517944,292.663086 
	C542.554382,292.846100 542.291443,293.151276 541.811035,293.664917 
	C541.801941,293.510651 542.010193,293.147949 542.517944,292.663086 
z"/>
<path fill="#7535AB" opacity="1.000000" stroke="none" 
	d="
M664.300659,276.071106 
	C664.242676,275.857697 664.489319,275.612701 664.919800,275.182495 
	C664.937561,275.344696 664.771484,275.692108 664.300659,276.071106 
z"/>
<path fill="#62328A" opacity="1.000000" stroke="none" 
	d="
M560.531128,274.679657 
	C560.564697,274.868378 560.292603,275.166138 559.793884,275.665710 
	C559.786621,275.507904 560.005981,275.148315 560.531128,274.679657 
z"/>
<path fill="#7535AB" opacity="1.000000" stroke="none" 
	d="
M665.301392,275.071991 
	C665.243042,274.858093 665.489502,274.612762 665.920166,274.182617 
	C665.938354,274.345398 665.772278,274.692993 665.301392,275.071991 
z"/>
<path fill="#62328A" opacity="1.000000" stroke="none" 
	d="
M561.530029,273.690796 
	C561.564758,273.884735 561.289185,274.174530 560.788391,274.664429 
	C560.782043,274.505249 561.000916,274.145905 561.530029,273.690796 
z"/>
<path fill="#7535AB" opacity="1.000000" stroke="none" 
	d="
M666.302124,274.072693 
	C666.243469,273.858490 666.489685,273.612915 666.920288,273.182648 
	C666.938782,273.345734 666.772949,273.693512 666.302124,274.072693 
z"/>
<path fill="#7535AB" opacity="1.000000" stroke="none" 
	d="
M667.302185,273.072601 
	C667.243530,272.858612 667.489807,272.613037 667.920105,272.182465 
	C667.938416,272.345306 667.772766,272.693146 667.302185,273.072601 
z"/>
<path fill="#7535AB" opacity="1.000000" stroke="none" 
	d="
M668.301392,272.071472 
	C668.243225,271.858215 668.489746,271.612946 668.919556,271.182007 
	C668.937256,271.344086 668.771667,271.691803 668.301392,272.071472 
z"/>
<path fill="#7535AB" opacity="1.000000" stroke="none" 
	d="
M669.299927,271.069580 
	C669.242554,270.857422 669.489502,270.612732 669.918823,270.181580 
	C669.935608,270.342468 669.769897,270.689789 669.299927,271.069580 
z"/>
<path fill="#7535AB" opacity="1.000000" stroke="none" 
	d="
M670.298462,270.067749 
	C670.241699,269.856323 670.488708,269.611877 670.918030,269.181061 
	C670.934326,269.341400 670.768250,269.688080 670.298462,270.067749 
z"/>
<path fill="#7940A1" opacity="1.000000" stroke="none" 
	d="
M72.063812,164.668762 
	C71.851990,164.658798 71.611542,164.298187 71.179337,163.674103 
	C71.336784,163.713120 71.685989,164.015625 72.063812,164.668762 
z"/>
<path fill="#7535AB" opacity="1.000000" stroke="none" 
	d="
M677.296265,263.064697 
	C677.240906,262.855194 677.488098,262.611115 677.917236,262.180389 
	C677.932373,262.339172 677.765686,262.684631 677.296265,263.064697 
z"/>
<path fill="#60089A" opacity="1.000000" stroke="none" 
	d="
M586.581787,225.887787 
	C509.969299,226.035278 432.981903,226.019516 355.994476,226.001205 
	C353.328339,226.000565 350.662231,225.974243 347.534851,225.946686 
	C349.529816,225.621338 351.985840,225.038010 354.442261,225.036453 
	C429.394012,224.988983 504.345825,224.992233 579.297607,225.029922 
	C581.600769,225.031082 583.903748,225.482590 586.581787,225.887787 
z"/>
</svg>