<svg xmlns="http://www.w3.org/2000/svg" xmlns:xlink="http://www.w3.org/1999/xlink" width="1024" zoomAndPan="magnify" viewBox="0 0 768 2460.000005" height="3280" preserveAspectRatio="xMidYMid meet" version="1.2"><defs><clipPath id="47459e2a6e"><path d="M 0.15625 0 L 767.84375 0 L 767.84375 2459 L 0.15625 2459 Z M 0.15625 0 "/></clipPath><clipPath id="545a177b2c"><path d="M 344 1582.242188 L 660 1582.242188 L 660 1855.882812 L 344 1855.882812 Z M 344 1582.242188 "/></clipPath></defs><g id="058f292966"><g clip-rule="nonzero" clip-path="url(#47459e2a6e)"><path style=" stroke:none;fill-rule:nonzero;fill:#ffffff;fill-opacity:1;" d="M 0.15625 0 L 767.84375 0 L 767.84375 2459 L 0.15625 2459 Z M 0.15625 0 "/><path style=" stroke:none;fill-rule:nonzero;fill:#ffffff;fill-opacity:1;" d="M 0.15625 0 L 767.84375 0 L 767.84375 2459 L 0.15625 2459 Z M 0.15625 0 "/></g><g clip-rule="nonzero" clip-path="url(#545a177b2c)"><path style=" stroke:none;fill-rule:evenodd;fill:#731ca7;fill-opacity:1;" d="M 523.734375 1582.496094 C 517.257812 1582.496094 510.980469 1584.71875 505.515625 1588.757812 C 493.769531 1600.265625 493.769531 1617.835938 505.515625 1627.9375 L 553.703125 1677.609375 C 559.570312 1681.851562 555.117188 1692.148438 547.828125 1692.148438 L 374.113281 1692.148438 C 373.101562 1691.949219 372.289062 1691.949219 371.480469 1691.949219 C 356.699219 1691.949219 346.171875 1703.058594 344.957031 1716.785156 C 343.335938 1732.945312 356.5 1746.070312 372.695312 1746.070312 L 547.828125 1746.070312 C 555.117188 1746.070312 559.570312 1754.753906 553.703125 1760.609375 L 506.929688 1807.054688 C 496.808594 1817.355469 495.390625 1834.925781 504.097656 1846.433594 C 509.96875 1852.289062 517.257812 1855.117188 524.546875 1855.117188 C 531.832031 1855.117188 539.121094 1852.289062 544.996094 1846.433594 L 651.492188 1738.597656 C 663.234375 1727.085938 661.816406 1709.519531 651.492188 1698.007812 L 544.996094 1591.585938 C 538.71875 1585.324219 531.226562 1582.496094 523.734375 1582.496094 Z M 523.734375 1582.496094 "/></g><path style=" stroke:none;fill-rule:evenodd;fill:#731ca7;fill-opacity:1;" d="M 236.792969 1693.734375 C 201.160156 1693.734375 201.160156 1749.140625 236.792969 1749.140625 L 266.882812 1749.140625 C 302.515625 1749.140625 302.515625 1693.734375 266.882812 1693.734375 Z M 236.792969 1693.734375 "/><path style=" stroke:none;fill-rule:evenodd;fill:#731ca7;fill-opacity:1;" d="M 142.042969 1693.734375 C 104.683594 1693.734375 104.683594 1749.140625 142.042969 1749.140625 L 144.933594 1749.140625 C 180.640625 1749.140625 180.640625 1693.734375 144.933594 1693.734375 Z M 142.042969 1693.734375 "/></g></svg>